<svg width="19" height="19" viewBox="0 0 19 19" fill="none" xmlns="http://www.w3.org/2000/svg">
<g clip-path="url(#clip0_296_196)">
<path d="M9.5 0.5C11.28 0.5 13.0201 1.02784 14.5001 2.01677C15.9802 3.00571 17.1337 4.41131 17.8149 6.05585C18.4961 7.70038 18.6743 9.50998 18.3271 11.2558C17.9798 13.0016 17.1226 14.6053 15.864 15.864C14.6053 17.1226 13.0016 17.9798 11.2558 18.3271C9.50998 18.6743 7.70038 18.4961 6.05585 17.8149C4.41131 17.1337 3.00571 15.9802 2.01677 14.5001C1.02784 13.0201 0.5 11.28 0.5 9.5C0.5 7.11305 1.44821 4.82387 3.13604 3.13604C4.82387 1.44821 7.11305 0.5 9.5 0.5Z" fill="#888888" stroke="white"/>
<path d="M9.44897 5V14" stroke="white" stroke-width="1.3" stroke-linecap="round"/>
<path d="M14 9.54901H5" stroke="white" stroke-width="1.3" stroke-linecap="round"/>
</g>
<defs>
<clipPath id="clip0_296_196">
<rect width="19" height="19" fill="white"/>
</clipPath>
</defs>
</svg>
