<svg width="27" height="27" viewBox="0 0 27 27" fill="none" xmlns="http://www.w3.org/2000/svg">
<mask id="mask0_296_188" style="mask-type:luminance" maskUnits="userSpaceOnUse" x="13" y="0" width="14" height="14">
<path d="M13.087 0H26.987V13.9H13.087V0Z" fill="white"/>
</mask>
<g mask="url(#mask0_296_188)">
<mask id="mask1_296_188" style="mask-type:luminance" maskUnits="userSpaceOnUse" x="13" y="0" width="14" height="14">
<path d="M26.881 0.10199H13.189V13.794H26.881V0.10199Z" fill="white"/>
</mask>
<g mask="url(#mask1_296_188)">
<path d="M17.635 5.14598L18.435 3.28298C18.4426 3.26922 18.4538 3.25776 18.4673 3.24977C18.4809 3.24179 18.4963 3.23758 18.512 3.23758C18.5277 3.23758 18.5432 3.24179 18.5567 3.24977C18.5702 3.25776 18.5814 3.26922 18.589 3.28298L19.497 5.25198C19.6814 5.58093 19.9531 5.85257 20.282 6.03698L22.251 6.94498C22.2648 6.95259 22.2762 6.96374 22.2842 6.97728C22.2922 6.99082 22.2964 7.00626 22.2964 7.02198C22.2964 7.0377 22.2922 7.05313 22.2842 7.06667C22.2762 7.08021 22.2648 7.09137 22.251 7.09898L20.387 7.89898C20.0276 8.09033 19.7334 8.38453 19.542 8.74398L18.742 10.608C18.7344 10.6217 18.7232 10.6332 18.7097 10.6412C18.6962 10.6492 18.6807 10.6534 18.665 10.6534C18.6493 10.6534 18.6339 10.6492 18.6203 10.6412C18.6068 10.6332 18.5956 10.6217 18.588 10.608L17.677 8.64298C17.492 8.31406 17.2196 8.04273 16.89 7.85898L14.925 6.94798C14.9113 6.94037 14.8998 6.92921 14.8918 6.91567C14.8838 6.90213 14.8796 6.8867 14.8796 6.87098C14.8796 6.85526 14.8838 6.83982 14.8918 6.82628C14.8998 6.81274 14.9113 6.80159 14.925 6.79398L16.788 5.99398C17.1474 5.80263 17.4417 5.50842 17.633 5.14898" fill="#60CFFF"/>
<path d="M22.484 2.111L22.854 1.248C22.8575 1.24153 22.8627 1.23613 22.8691 1.23237C22.8754 1.22861 22.8826 1.22662 22.89 1.22662C22.8974 1.22662 22.9046 1.22861 22.9109 1.23237C22.9173 1.23613 22.9225 1.24153 22.926 1.248L23.346 2.16C23.4313 2.31208 23.5569 2.43769 23.709 2.523L24.621 2.943C24.6275 2.94653 24.6329 2.95173 24.6366 2.95807C24.6404 2.9644 24.6424 2.97163 24.6424 2.979C24.6424 2.98637 24.6404 2.9936 24.6366 2.99994C24.6329 3.00627 24.6275 3.01148 24.621 3.015L23.758 3.385C23.5914 3.47347 23.4549 3.6096 23.366 3.776L22.996 4.639C22.9926 4.6455 22.9875 4.65095 22.9813 4.65476C22.975 4.65856 22.9678 4.66057 22.9605 4.66057C22.9532 4.66057 22.946 4.65856 22.9397 4.65476C22.9335 4.65095 22.9284 4.6455 22.925 4.639L22.503 3.729C22.4177 3.57692 22.2921 3.45131 22.14 3.366L21.23 2.944C21.2238 2.9404 21.2186 2.93523 21.215 2.929C21.2114 2.92276 21.2095 2.9157 21.2095 2.9085C21.2095 2.90131 21.2114 2.89424 21.215 2.88801C21.2186 2.88178 21.2238 2.8766 21.23 2.873L22.093 2.502C22.2593 2.41342 22.3954 2.27729 22.484 2.111Z" fill="#60CFFF"/>
<path d="M22.484 10.183L22.854 9.31999C22.8575 9.31352 22.8627 9.30813 22.8691 9.30436C22.8754 9.3006 22.8826 9.29861 22.89 9.29861C22.8974 9.29861 22.9046 9.3006 22.9109 9.30436C22.9173 9.30813 22.9225 9.31352 22.926 9.31999L23.346 10.232C23.4313 10.3841 23.5569 10.5097 23.709 10.595L24.621 11.015C24.6275 11.0185 24.6329 11.0237 24.6366 11.0301C24.6404 11.0364 24.6424 11.0436 24.6424 11.051C24.6424 11.0584 24.6404 11.0656 24.6366 11.0719C24.6329 11.0783 24.6275 11.0835 24.621 11.087L23.758 11.457C23.5914 11.5455 23.4549 11.6816 23.366 11.848L22.996 12.711C22.9926 12.7175 22.9875 12.7229 22.9813 12.7267C22.975 12.7305 22.9678 12.7326 22.9605 12.7326C22.9532 12.7326 22.946 12.7305 22.9397 12.7267C22.9335 12.7229 22.9284 12.7175 22.925 12.711L22.503 11.801C22.4177 11.6489 22.2921 11.5233 22.14 11.438L21.23 11.016C21.2238 11.0124 21.2186 11.0072 21.215 11.001C21.2114 10.9948 21.2095 10.9877 21.2095 10.9805C21.2095 10.9733 21.2114 10.9662 21.215 10.96C21.2186 10.9538 21.2238 10.9486 21.23 10.945L22.093 10.574C22.2593 10.4854 22.3954 10.3493 22.484 10.183Z" fill="#60CFFF"/>
</g>
</g>
<path d="M7.99399 22.136C11.9119 22.136 15.088 18.9599 15.088 15.042C15.088 11.1241 11.9119 7.948 7.99399 7.948C4.07609 7.948 0.899994 11.1241 0.899994 15.042C0.899994 18.9599 4.07609 22.136 7.99399 22.136Z" stroke="#60CFFF" stroke-width="1.8"/>
<path d="M13.587 20.544L18.628 25.503" stroke="#60CFFF" stroke-width="1.8" stroke-linecap="round"/>
</svg>
