<svg width="40" height="40" viewBox="0 0 40 40" fill="none" xmlns="http://www.w3.org/2000/svg">
<mask id="mask0_296_190" style="mask-type:luminance" maskUnits="userSpaceOnUse" x="0" y="0" width="40" height="40">
<path d="M0 0H40V40H0V0Z" fill="white"/>
</mask>
<g mask="url(#mask0_296_190)">
<mask id="mask1_296_190" style="mask-type:luminance" maskUnits="userSpaceOnUse" x="0" y="0" width="40" height="40">
<path d="M39.707 0.291992H0.291992V39.707H39.707V0.291992Z" fill="white"/>
</mask>
<g mask="url(#mask1_296_190)">
<path d="M13.089 14.812L15.389 9.44898C15.4104 9.40913 15.4421 9.37574 15.4808 9.3523C15.5195 9.32886 15.5638 9.31623 15.609 9.31572C15.6543 9.31521 15.6988 9.32684 15.738 9.3494C15.7772 9.37196 15.8097 9.40462 15.832 9.44398L18.445 15.111C18.9754 16.0575 19.7568 16.8392 20.703 17.37L26.368 19.982C26.4078 20.0038 26.4411 20.0359 26.4643 20.0749C26.4874 20.114 26.4996 20.1586 26.4996 20.204C26.4996 20.2494 26.4874 20.294 26.4643 20.333C26.4411 20.3721 26.4078 20.4042 26.368 20.426L21.003 22.726C19.9671 23.2768 19.1193 24.1243 18.568 25.16L16.268 30.525C16.2466 30.5648 16.2149 30.5982 16.1762 30.6217C16.1375 30.6451 16.0932 30.6577 16.048 30.6582C16.0027 30.6588 15.9582 30.6471 15.919 30.6246C15.8797 30.602 15.8473 30.5693 15.825 30.53L13.203 24.872C12.6724 23.9256 11.8907 23.1441 10.944 22.614L5.28699 19.991C5.24739 19.9691 5.21437 19.937 5.19137 19.8981C5.16838 19.8591 5.15625 19.8147 5.15625 19.7695C5.15625 19.7242 5.16838 19.6798 5.19137 19.6409C5.21437 19.6019 5.24739 19.5698 5.28699 19.548L10.651 17.248C11.686 16.6971 12.5331 15.85 13.084 14.815" fill="#60CFFF"/>
<path d="M27.05 6.07699L28.116 3.59399C28.1261 3.57518 28.1411 3.55945 28.1594 3.54849C28.1777 3.53753 28.1987 3.53174 28.22 3.53174C28.2413 3.53174 28.2623 3.53753 28.2806 3.54849C28.2989 3.55945 28.3139 3.57518 28.324 3.59399L29.534 6.21899C29.7798 6.65727 30.1417 7.01923 30.58 7.26499L33.205 8.47499C33.2236 8.48501 33.2391 8.49987 33.25 8.51801C33.2608 8.53614 33.2665 8.55687 33.2665 8.57799C33.2665 8.59911 33.2608 8.61984 33.25 8.63797C33.2391 8.65611 33.2236 8.67097 33.205 8.68099L30.721 9.74699C30.2416 10.0022 29.8493 10.3946 29.594 10.874L28.524 13.353C28.5141 13.3716 28.4994 13.3872 28.4813 13.3981C28.4633 13.4089 28.4426 13.4147 28.4215 13.4147C28.4004 13.4147 28.3797 13.4089 28.3617 13.3981C28.3436 13.3872 28.3289 13.3716 28.319 13.353L27.104 10.733C26.857 10.2971 26.4948 9.93765 26.057 9.69399L23.437 8.47899C23.4198 8.46856 23.4056 8.45387 23.3958 8.43636C23.3859 8.41884 23.3807 8.39909 23.3807 8.37899C23.3807 8.35889 23.3859 8.33913 23.3958 8.32162C23.4056 8.3041 23.4198 8.28942 23.437 8.27899L25.924 7.20299C26.4034 6.94784 26.7958 6.55543 27.051 6.07599" fill="#60CFFF"/>
<path d="M27.05 29.313L28.116 26.829C28.1262 26.8107 28.1412 26.7954 28.1593 26.7848C28.1774 26.7742 28.198 26.7686 28.219 26.7686C28.24 26.7686 28.2606 26.7742 28.2787 26.7848C28.2968 26.7954 28.3118 26.8107 28.322 26.829L29.532 29.454C29.7778 29.8923 30.1397 30.2542 30.578 30.5L33.203 31.71C33.2216 31.72 33.2371 31.7349 33.248 31.753C33.2588 31.7711 33.2645 31.7919 33.2645 31.813C33.2645 31.8341 33.2588 31.8548 33.248 31.873C33.2371 31.8911 33.2216 31.906 33.203 31.916L30.719 32.982C30.2396 33.2372 29.8472 33.6296 29.592 34.109L28.524 36.589C28.5141 36.6076 28.4994 36.6232 28.4813 36.6341C28.4633 36.6449 28.4426 36.6507 28.4215 36.6507C28.4004 36.6507 28.3797 36.6449 28.3617 36.6341C28.3436 36.6232 28.3289 36.6076 28.319 36.589L27.104 33.969C26.8583 33.5307 26.4963 33.1687 26.058 32.923L23.438 31.708C23.4196 31.6979 23.4043 31.683 23.3937 31.665C23.383 31.647 23.3774 31.6264 23.3774 31.6055C23.3774 31.5845 23.383 31.564 23.3937 31.5459C23.4043 31.5279 23.4196 31.5131 23.438 31.503L25.924 30.439C26.4034 30.1838 26.7958 29.7914 27.051 29.312" fill="#60CFFF"/>
</g>
</g>
</svg>
