<svg width="26" height="22" viewBox="0 0 26 22" fill="none" xmlns="http://www.w3.org/2000/svg">
<path d="M17.6081 13.6623C17.5258 13.8102 17.4027 13.9313 17.2534 14.0111C17.1041 14.0908 16.9349 14.1259 16.7662 14.112C16.5975 14.0982 16.4363 14.036 16.302 13.933C16.1677 13.83 16.0659 13.6904 16.0089 13.5311C15.9518 13.3717 15.9418 13.1993 15.9802 13.0344C16.0185 12.8695 16.1036 12.7192 16.2251 12.6014C16.3467 12.4836 16.4996 12.4033 16.6656 12.3701C16.8316 12.3369 17.0036 12.3523 17.1611 12.4143C17.3852 12.5213 17.558 12.7125 17.6417 12.9462C17.7254 13.18 17.7134 13.4374 17.6081 13.6623Z" fill="black"/>
<path d="M12.3671 17.7583C12.1996 17.7355 12.0421 17.6649 11.9136 17.555C11.7851 17.445 11.6909 17.3005 11.6423 17.1385C11.5937 16.9765 11.5928 16.8039 11.6396 16.6414C11.6864 16.4789 11.779 16.3333 11.9064 16.222C12.0337 16.1107 12.1904 16.0384 12.3577 16.0138C12.525 15.9891 12.6959 16.0132 12.8499 16.083C13.004 16.1528 13.1346 16.2655 13.2263 16.4076C13.3181 16.5497 13.3669 16.7152 13.3671 16.8843C13.35 17.1326 13.2351 17.364 13.0476 17.5278C12.8602 17.6916 12.6155 17.7745 12.3671 17.7583Z" fill="black"/>
<path d="M7.20514 13.6623C7.28744 13.8102 7.41061 13.9313 7.55992 14.0111C7.70923 14.0908 7.87836 14.1259 8.04707 14.112C8.21579 14.0982 8.37694 14.036 8.51125 13.933C8.64556 13.83 8.74735 13.6904 8.80443 13.5311C8.86151 13.3717 8.87147 13.1993 8.83311 13.0344C8.79476 12.8695 8.70972 12.7192 8.58816 12.6014C8.4666 12.4836 8.31368 12.4033 8.14768 12.3701C7.98168 12.3369 7.80964 12.3523 7.65214 12.4143C7.42805 12.5213 7.25531 12.7125 7.17158 12.9462C7.08785 13.18 7.09991 13.4374 7.20514 13.6623Z" fill="black"/>
<path d="M3.30114 9.50931C3.30114 9.50931 3.18114 2.59131 5.72314 0.602306C5.72314 0.602306 6.75314 0.339306 10.5591 5.43831H16.1841C16.1841 5.43831 18.8131 1.96431 21.3751 0.602306C21.3751 0.602306 23.4341 2.56731 23.0751 9.9173" stroke="black" stroke-width="1.2" stroke-linecap="round" stroke-linejoin="round"/>
<path d="M10.3151 18.5263C12.0551 19.6753 12.2781 17.3263 12.2781 17.3263C12.2781 17.3263 12.8051 19.4173 14.1611 18.5393" stroke="black" stroke-width="1.2" stroke-linecap="round" stroke-linejoin="round"/>
<path d="M7.77714 17.8403C5.42946 17.0892 2.9484 16.8485 0.500137 17.1343" stroke="black" stroke-linecap="round" stroke-linejoin="round"/>
<path d="M0.500137 19.1173C2.81408 18.218 5.30445 17.8651 7.77714 18.0863" stroke="black" stroke-linecap="round" stroke-linejoin="round"/>
<path d="M1.62514 21.3913C3.39038 19.8442 5.51958 18.7706 7.81314 18.2713" stroke="black" stroke-linecap="round" stroke-linejoin="round"/>
<path d="M17.6941 17.7533C20.0415 17.0009 22.5226 16.7588 24.9711 17.0433" stroke="black" stroke-linecap="round" stroke-linejoin="round"/>
<path d="M24.9711 19.0303C22.6572 18.131 20.1668 17.7781 17.6941 17.9993" stroke="black" stroke-linecap="round" stroke-linejoin="round"/>
<path d="M23.8451 21.3043C22.0799 19.7572 19.9507 18.6836 17.6571 18.1843" stroke="black" stroke-linecap="round" stroke-linejoin="round"/>
</svg>
