<svg width="46" height="46" viewBox="0 0 46 46" fill="none" xmlns="http://www.w3.org/2000/svg">
<path d="M23 46C35.7025 46 46 35.7025 46 23C46 10.2975 35.7025 0 23 0C10.2975 0 0 10.2975 0 23C0 35.7025 10.2975 46 23 46Z" fill="#888888" fill-opacity="0.3"/>
<path d="M23 45.5C35.4264 45.5 45.5 35.4264 45.5 23C45.5 10.5736 35.4264 0.5 23 0.5C10.5736 0.5 0.5 10.5736 0.5 23C0.5 35.4264 10.5736 45.5 23 45.5Z" stroke="#E5E5EA"/>
<path d="M23.513 22.858C27.0349 22.858 29.89 20.0029 29.89 16.481C29.89 12.9591 27.0349 10.104 23.513 10.104C19.9911 10.104 17.136 12.9591 17.136 16.481C17.136 20.0029 19.9911 22.858 23.513 22.858Z" stroke="white" stroke-width="2"/>
<path d="M10.63 36.8969C10.63 36.8969 10.4809 26.376 23.8959 26.518" stroke="white" stroke-width="2"/>
<path d="M37.37 36.8969C37.37 36.8969 37.519 26.376 24.104 26.518" stroke="white" stroke-width="2"/>
</svg>
