<svg width="23" height="22" viewBox="0 0 23 22" fill="none" xmlns="http://www.w3.org/2000/svg">
<path d="M0.905689 1.53751L3.18169 17.2935C3.19323 17.3748 3.22262 17.4525 3.26774 17.521C3.31287 17.5896 3.37261 17.6473 3.44268 17.69C3.51276 17.7328 3.59142 17.7594 3.67303 17.7682C3.75464 17.7769 3.83717 17.7675 3.91469 17.7405L20.8617 11.8925C20.9649 11.8569 21.0553 11.7918 21.1218 11.7053C21.1883 11.6187 21.2279 11.5145 21.2357 11.4056C21.2435 11.2967 21.2191 11.188 21.1656 11.0928C21.1121 10.9977 21.0318 10.9204 20.9347 10.8705L1.71269 0.961511C1.6216 0.914785 1.51942 0.894017 1.41732 0.901478C1.31523 0.90894 1.21715 0.944344 1.13382 1.00382C1.0505 1.06329 0.985142 1.14454 0.944904 1.23867C0.904667 1.3328 0.891101 1.43619 0.905689 1.53751Z" stroke="#60CFFF" stroke-width="1.8" stroke-miterlimit="10"/>
<path d="M1.32068 1.34152L13.4987 14.2255C13.5936 14.3252 13.6463 14.4578 13.6457 14.5955V19.8495C13.6456 19.9537 13.6154 20.0557 13.5586 20.1431C13.5018 20.2305 13.4208 20.2995 13.3256 20.3418C13.2304 20.3841 13.1249 20.398 13.022 20.3816C12.919 20.3652 12.8231 20.3193 12.7457 20.2495L8.33368 16.2175" stroke="#60CFFF" stroke-width="1.8" stroke-miterlimit="10"/>
</svg>
