<svg width="27" height="27" viewBox="0 0 27 27" fill="none" xmlns="http://www.w3.org/2000/svg">
<path d="M19.7986 7.07142C21.0573 8.33009 21.9144 9.93374 22.2617 11.6796C22.609 13.4254 22.4307 15.235 21.7495 16.8795C21.0684 18.5241 19.9148 19.9297 18.4348 20.9186C16.9547 21.9075 15.2147 22.4354 13.4346 22.4354C11.6546 22.4354 9.91454 21.9075 8.4345 20.9186C6.95446 19.9297 5.80091 18.5241 5.11972 16.8795C4.43853 15.235 4.2603 13.4254 4.60756 11.6796C4.95483 9.93374 5.812 8.33009 7.07067 7.07142C8.7585 5.38359 11.0477 4.43538 13.4346 4.43538C15.8216 4.43538 18.1108 5.38359 19.7986 7.07142Z" fill="#888888" stroke="white"/>
<path d="M16.581 10.217L10.217 16.5809" stroke="white" stroke-width="1.3" stroke-linecap="round"/>
<path d="M16.583 16.6509L10.219 10.287" stroke="white" stroke-width="1.3" stroke-linecap="round"/>
</svg>
