<svg width="28" height="18" viewBox="0 0 28 18" fill="none" xmlns="http://www.w3.org/2000/svg">
<path d="M19.7687 3.33091C19.7687 3.33091 21.8747 9.86891 24.9447 10.1139C24.9447 10.1139 26.5097 10.2359 26.5897 7.66991V5.59691C26.5475 5.21528 26.4191 4.84823 26.2142 4.52355C26.0092 4.19888 25.7331 3.92509 25.4067 3.72291C23.652 2.43824 21.6936 1.45789 19.6137 0.822913C17.7642 0.463292 15.8565 0.539645 14.0417 1.04591C12.5198 1.4855 11.1563 2.35329 10.1137 3.54591C10.1137 3.54591 10.0277 3.63491 9.90568 3.77691C9.50124 4.25799 9.21281 4.82561 9.06268 5.43591C8.91691 6.00301 8.655 6.53368 8.29352 6.99431C7.93204 7.45494 7.47886 7.8355 6.96268 8.11191C5.94313 8.68348 4.89174 9.19631 3.81368 9.64791L1.08368 10.6819C0.891896 10.7691 0.74072 10.9263 0.66114 11.1213C0.58156 11.3164 0.579605 11.5345 0.655677 11.7309C1.38312 13.3865 2.62813 14.7613 4.20368 15.6489C4.97471 16.1145 5.84598 16.3888 6.74468 16.4489C7.97003 16.5067 9.19801 16.4273 10.4057 16.2119L13.5897 15.6279" stroke="black" stroke-width="1.2" stroke-linecap="round" stroke-linejoin="round"/>
<path d="M12.3267 7.09191C12.3967 7.2179 12.5016 7.32103 12.6287 7.38896C12.7559 7.4569 12.8999 7.48676 13.0435 7.47496C13.1872 7.46317 13.3244 7.41023 13.4388 7.32248C13.5531 7.23472 13.6398 7.11587 13.6883 6.98015C13.7369 6.84443 13.7453 6.69759 13.7126 6.55721C13.6799 6.41683 13.6074 6.28885 13.5038 6.18859C13.4003 6.08834 13.27 6.02005 13.1286 5.99191C12.9872 5.96377 12.8408 5.97696 12.7067 6.02991C12.5159 6.12085 12.3689 6.28357 12.2977 6.48255C12.2265 6.68153 12.2369 6.9006 12.3267 7.09191Z" fill="black"/>
<path d="M3.86168 9.64992C3.86168 9.64992 5.17168 12.1549 1.70868 13.1129L0.656677 11.7279L1.08868 10.6819L3.86168 9.64992Z" fill="black"/>
</svg>
