<svg width="23" height="25" viewBox="0 0 23 25" fill="none" xmlns="http://www.w3.org/2000/svg">
<path d="M6.48181 8.75866L8.18681 4.78366C8.19854 4.76203 8.21442 4.74293 8.23354 4.72745C8.25267 4.71197 8.27465 4.70041 8.29825 4.69345C8.32184 4.68648 8.34658 4.68424 8.37105 4.68685C8.39551 4.68946 8.41922 4.69687 8.44081 4.70866C8.47248 4.72562 8.49828 4.75176 8.51482 4.78366L10.4518 8.98366C10.8454 9.68725 11.4262 10.2681 12.1298 10.6617L16.3298 12.5987C16.3736 12.6225 16.406 12.6628 16.4201 12.7106C16.4342 12.7584 16.4287 12.8099 16.4048 12.8537C16.3876 12.8851 16.3615 12.9108 16.3298 12.9277L12.3478 14.6277C11.583 15.0364 10.9566 15.6628 10.5478 16.4277L8.84181 20.4037C8.83002 20.4253 8.81402 20.4445 8.79475 20.4599C8.77549 20.4754 8.75335 20.4868 8.72961 20.4936C8.70588 20.5004 8.68103 20.5024 8.65651 20.4995C8.63199 20.4966 8.6083 20.4888 8.58681 20.4767C8.55628 20.4598 8.53128 20.4344 8.51482 20.4037L6.57082 16.2097C6.17627 15.5064 5.59527 14.9258 4.89182 14.5317L0.697815 12.5877C0.676221 12.576 0.657139 12.5602 0.64167 12.5412C0.626201 12.5222 0.614652 12.5003 0.607681 12.4768C0.60071 12.4532 0.598454 12.4286 0.601051 12.4042C0.603649 12.3798 0.611043 12.3562 0.62281 12.3347C0.640605 12.3034 0.666521 12.2775 0.697815 12.2597L4.67281 10.5537C5.4404 10.1479 6.07005 9.52307 6.48181 8.75866Z" stroke="#626A75" stroke-width="1.2" stroke-miterlimit="10"/>
<path d="M17.6418 17.8425L18.4748 15.9005C18.4866 15.8792 18.5064 15.8634 18.5298 15.8566C18.5533 15.8499 18.5784 15.8527 18.5998 15.8645C18.6145 15.8731 18.6267 15.8855 18.6348 15.9005L19.5808 17.9515C19.7726 18.2942 20.0554 18.5772 20.3978 18.7695L22.4498 19.7155C22.4709 19.7273 22.4865 19.7469 22.4932 19.7701C22.4999 19.7933 22.4973 19.8182 22.4858 19.8395C22.4771 19.8544 22.4647 19.8668 22.4498 19.8755L20.5078 20.7085C20.1309 20.9084 19.8227 21.2166 19.6228 21.5935L18.7918 23.5315C18.7863 23.5421 18.7788 23.5514 18.7697 23.559C18.7605 23.5666 18.75 23.5723 18.7386 23.5757C18.7272 23.5792 18.7153 23.5803 18.7035 23.5791C18.6917 23.5778 18.6802 23.5742 18.6698 23.5685C18.6535 23.5605 18.6402 23.5476 18.6318 23.5315L17.6858 21.4845C17.4936 21.1423 17.211 20.8597 16.8688 20.6675L14.8198 19.7175C14.8054 19.7095 14.7934 19.6979 14.7851 19.6837C14.7767 19.6696 14.7723 19.6534 14.7723 19.637C14.7723 19.6206 14.7767 19.6044 14.7851 19.5903C14.7934 19.5761 14.8054 19.5645 14.8198 19.5565L16.7628 18.7225C17.1368 18.5232 17.4429 18.2168 17.6418 17.8425Z" stroke="#626A75" stroke-miterlimit="10"/>
<path d="M16.0358 2.48947L16.8688 0.547474C16.8806 0.526128 16.9004 0.510345 16.9239 0.503594C16.9473 0.496843 16.9725 0.499677 16.9938 0.511474C17.0086 0.520038 17.0207 0.532492 17.0288 0.547474L17.9748 2.59847C18.1651 2.94086 18.4461 3.22422 18.7868 3.41747L20.8388 4.36347C20.8599 4.37528 20.8755 4.3949 20.8822 4.4181C20.889 4.4413 20.8863 4.46622 20.8748 4.48747C20.8661 4.50238 20.8537 4.51478 20.8388 4.52347L18.8968 5.35647C18.52 5.55634 18.2117 5.86461 18.0118 6.24147L17.1868 8.17847C17.1813 8.18902 17.1738 8.19837 17.1647 8.20597C17.1556 8.21357 17.145 8.21926 17.1336 8.22271C17.1223 8.22615 17.1103 8.22729 17.0985 8.22605C17.0867 8.22481 17.0752 8.22121 17.0648 8.21547C17.0485 8.20751 17.0352 8.19454 17.0268 8.17847L16.0808 6.13147C15.8886 5.78932 15.606 5.50667 15.2638 5.31447L13.2148 4.36447C13.2004 4.35652 13.1884 4.34485 13.1801 4.3307C13.1718 4.31654 13.1674 4.30041 13.1674 4.28397C13.1674 4.26754 13.1718 4.25141 13.1801 4.23725C13.1884 4.22309 13.2004 4.21143 13.2148 4.20347L15.1578 3.36947C15.5315 3.16997 15.8372 2.86358 16.0358 2.48947Z" stroke="#626A75" stroke-miterlimit="10"/>
</svg>
