<svg width="22" height="22" viewBox="0 0 22 22" fill="none" xmlns="http://www.w3.org/2000/svg">
<path d="M10.9607 0.600006C9.14514 0.600526 7.36244 1.0843 5.7957 2.00165C4.22895 2.91899 2.93462 4.23684 2.04563 5.81985C1.15665 7.40286 0.705054 9.19397 0.737224 11.0092C0.769394 12.8245 1.28418 14.5985 2.22869 16.149L0.628689 20.608C0.597976 20.6947 0.591786 20.7883 0.610805 20.8783C0.629825 20.9683 0.673322 21.0513 0.736492 21.1182C0.799662 21.1851 0.880054 21.2333 0.968837 21.2574C1.05762 21.2815 1.15135 21.2807 1.2397 21.255L6.05969 19.79C7.42661 20.537 8.94619 20.9618 10.5023 21.0317C12.0585 21.1016 13.6101 20.815 15.0385 20.1936C16.4669 19.5722 17.7344 18.6326 18.7442 17.4464C19.7539 16.2603 20.4792 14.859 20.8646 13.3497C21.2499 11.8404 21.2853 10.263 20.9678 8.73795C20.6503 7.21292 19.9885 5.78062 19.0328 4.55048C18.0772 3.32035 16.853 2.32492 15.4538 1.64024C14.0546 0.955564 12.5174 0.599759 10.9597 0.600006H10.9607Z" stroke="#626A75" stroke-width="1.2" stroke-miterlimit="10"/>
<path d="M7.6727 11.1151C7.6727 11.335 7.60748 11.55 7.4853 11.7329C7.36311 11.9157 7.18943 12.0583 6.98624 12.1424C6.78305 12.2266 6.55946 12.2486 6.34376 12.2057C6.12805 12.1628 5.9299 12.0569 5.77439 11.9014C5.61887 11.7459 5.51297 11.5477 5.47007 11.332C5.42716 11.1163 5.44918 10.8927 5.53335 10.6895C5.61751 10.4863 5.76004 10.3127 5.94291 10.1905C6.12577 10.0683 6.34077 10.0031 6.5607 10.0031C6.85563 10.0031 7.13846 10.1202 7.34701 10.3288C7.55555 10.5373 7.6727 10.8202 7.6727 11.1151Z" fill="#626A75"/>
<path d="M12.1927 11.1151C12.1925 11.3347 12.1272 11.5494 12.005 11.7319C11.8829 11.9145 11.7094 12.0567 11.5064 12.1407C11.3034 12.2247 11.0801 12.2466 10.8647 12.2037C10.6493 12.1608 10.4514 12.055 10.2961 11.8997C10.1408 11.7444 10.035 11.5465 9.9921 11.3311C9.9492 11.1157 9.97111 10.8924 10.0551 10.6894C10.139 10.4864 10.2813 10.3129 10.4638 10.1907C10.6464 10.0686 10.861 10.0033 11.0807 10.0031C11.3756 10.0031 11.6585 10.1202 11.867 10.3288C12.0755 10.5373 12.1927 10.8202 12.1927 11.1151Z" fill="#626A75"/>
<path d="M16.6837 11.1151C16.6835 11.3348 16.6182 11.5495 16.496 11.732C16.3738 11.9146 16.2002 12.0569 15.9972 12.1408C15.7942 12.2247 15.5708 12.2466 15.3554 12.2036C15.1399 12.1606 14.942 12.0547 14.7868 11.8993C14.6315 11.7439 14.5258 11.5459 14.483 11.3305C14.4402 11.115 14.4623 10.8916 14.5464 10.6887C14.6305 10.4857 14.7729 10.3123 14.9556 10.1902C15.1383 10.0682 15.353 10.0031 15.5727 10.0031C15.8676 10.0031 16.1505 10.1202 16.359 10.3288C16.5676 10.5373 16.6847 10.8202 16.6847 11.1151" fill="#626A75"/>
</svg>
