<svg width="24" height="22" viewBox="0 0 24 22" fill="none" xmlns="http://www.w3.org/2000/svg">
<path d="M12.3819 19.8564C12.2307 19.7901 12.0669 19.7578 11.9019 19.7616C11.737 19.7654 11.5748 19.8052 11.4269 19.8784C10.1712 20.4992 8.78549 20.8115 7.38488 20.7894C6.82506 20.7793 6.27767 20.6226 5.79738 20.3348C5.3171 20.047 4.92073 19.6383 4.64786 19.1494C4.62429 19.1025 4.60392 19.054 4.58687 19.0044C4.34506 18.259 4.30087 17.4636 4.45862 16.696C4.61638 15.9284 4.97068 15.2149 5.48687 14.6254C6.79703 12.9121 8.35279 11.4015 10.1039 10.1424C10.5363 9.85479 11.0415 9.69583 11.5607 9.68397C12.0798 9.67211 12.5918 9.80783 13.0369 10.0754C14.7501 11.1612 16.3091 12.473 17.6719 13.9754C18.466 14.7315 19.0591 15.6735 19.3979 16.7164C19.4041 16.7458 19.4088 16.7755 19.4119 16.8054C19.4702 17.4021 19.3892 18.0043 19.1752 18.5644C18.9612 19.1246 18.6202 19.6274 18.1789 20.0334C18.1029 20.0975 18.0209 20.1541 17.9339 20.2024C16.8904 20.7312 15.6891 20.8586 14.5579 20.5604C13.8152 20.3885 13.0883 20.1543 12.3849 19.8604L12.3819 19.8564Z" stroke="#626A75" stroke-width="1.2" stroke-miterlimit="10"/>
<path d="M5.83586 4.39149C5.79286 2.40949 6.93587 0.780488 8.39687 0.747488C9.85787 0.714488 11.0769 2.28849 11.1239 4.26949C11.1709 6.25049 10.0239 7.87949 8.56186 7.91449C7.09986 7.94949 5.87986 6.37049 5.83586 4.39149Z" stroke="#626A75" stroke-width="1.2" stroke-miterlimit="10"/>
<path d="M0.779863 10.3735C0.259863 8.5905 0.905872 6.8335 2.22087 6.4505C3.53587 6.0675 5.02086 7.2015 5.54486 8.9835C6.06886 10.7655 5.41887 12.5235 4.10387 12.9075C2.78887 13.2915 1.29886 12.1555 0.779863 10.3705" stroke="#626A75" stroke-width="1.2" stroke-miterlimit="10"/>
<path d="M23.0419 10.1483C22.5229 11.9333 21.0329 13.0683 19.7179 12.6843C18.4029 12.3003 17.7579 10.5433 18.2769 8.76131C18.7959 6.97931 20.2859 5.84431 21.6009 6.22731C22.9159 6.61031 23.5619 8.36731 23.0419 10.1513" stroke="#626A75" stroke-width="1.2" stroke-miterlimit="10"/>
<path d="M12.6729 4.24452C12.6289 2.26552 13.7729 0.633516 15.2339 0.600516C16.6949 0.567516 17.9139 2.14152 17.9599 4.12252C18.0059 6.10352 16.8599 7.73252 15.3989 7.76752C13.9379 7.80252 12.7179 6.22352 12.6729 4.24452Z" stroke="#626A75" stroke-width="1.2" stroke-miterlimit="10"/>
</svg>
