<svg width="23" height="25" viewBox="0 0 23 25" fill="none" xmlns="http://www.w3.org/2000/svg">
<path d="M6.48581 8.75949L8.19081 4.78448C8.20254 4.76286 8.21842 4.74375 8.23754 4.72827C8.25666 4.71279 8.27865 4.70124 8.30225 4.69427C8.32584 4.6873 8.35058 4.68506 8.37505 4.68767C8.39951 4.69028 8.42322 4.69769 8.44481 4.70948C8.47648 4.72644 8.50228 4.75259 8.51882 4.78448L10.4558 8.98448C10.8494 9.68808 11.4302 10.2689 12.1338 10.6625L16.3338 12.5995C16.3776 12.6234 16.41 12.6636 16.4241 12.7115C16.4382 12.7593 16.4327 12.8107 16.4088 12.8545C16.3916 12.8859 16.3655 12.9117 16.3338 12.9285L12.3518 14.6285C11.587 15.0372 10.9606 15.6637 10.5518 16.4285L8.84181 20.4035C8.83002 20.4252 8.81402 20.4443 8.79475 20.4597C8.77549 20.4752 8.75334 20.4866 8.72961 20.4934C8.70587 20.5002 8.68103 20.5022 8.65651 20.4993C8.63199 20.4964 8.6083 20.4886 8.58682 20.4765C8.55628 20.4596 8.53127 20.4342 8.51481 20.4035L6.57081 16.2095C6.17627 15.5063 5.59526 14.9256 4.89181 14.5315L0.697816 12.5875C0.676223 12.5759 0.657141 12.5601 0.641671 12.541C0.626202 12.522 0.614646 12.5001 0.607675 12.4766C0.600704 12.4531 0.598455 12.4284 0.601053 12.404C0.60365 12.3796 0.611045 12.356 0.622812 12.3345C0.640606 12.3032 0.666522 12.2773 0.697816 12.2595L4.67281 10.5535C5.44188 10.1483 6.07299 9.52447 6.48581 8.75949Z" fill="#60CFFF"/>
<path d="M6.48581 8.75949L8.19081 4.78448C8.20254 4.76286 8.21842 4.74375 8.23754 4.72827C8.25666 4.71279 8.27865 4.70124 8.30225 4.69427C8.32584 4.6873 8.35058 4.68506 8.37505 4.68767C8.39951 4.69028 8.42322 4.69769 8.44481 4.70948C8.47648 4.72644 8.50228 4.75259 8.51882 4.78448L10.4558 8.98448C10.8494 9.68808 11.4302 10.2689 12.1338 10.6625L16.3338 12.5995C16.3776 12.6234 16.41 12.6636 16.4241 12.7115C16.4382 12.7593 16.4327 12.8107 16.4088 12.8545C16.3916 12.8859 16.3655 12.9117 16.3338 12.9285L12.3518 14.6285C11.587 15.0372 10.9606 15.6637 10.5518 16.4285L8.84181 20.4035C8.83002 20.4252 8.81402 20.4443 8.79475 20.4597C8.77549 20.4752 8.75334 20.4866 8.72961 20.4934C8.70587 20.5002 8.68103 20.5022 8.65651 20.4993C8.63199 20.4964 8.6083 20.4886 8.58682 20.4765C8.55628 20.4596 8.53127 20.4342 8.51481 20.4035L6.57081 16.2095C6.17627 15.5063 5.59526 14.9256 4.89181 14.5315L0.697816 12.5875C0.676223 12.5759 0.657141 12.5601 0.641671 12.541C0.626202 12.522 0.614646 12.5001 0.607675 12.4766C0.600704 12.4531 0.598455 12.4284 0.601053 12.404C0.60365 12.3796 0.611045 12.356 0.622812 12.3345C0.640606 12.3032 0.666522 12.2773 0.697816 12.2595L4.67281 10.5535C5.44174 10.1486 6.07283 9.5241 6.48581 8.75949Z" stroke="#60CFFF" stroke-width="1.2" stroke-miterlimit="10"/>
<path d="M17.6458 17.8435L18.4788 15.9015C18.4906 15.8801 18.5104 15.8643 18.5339 15.8576C18.5573 15.8508 18.5825 15.8537 18.6038 15.8655C18.6186 15.874 18.6307 15.8865 18.6388 15.9015L19.5848 17.9525C19.7766 18.2952 20.0594 18.5782 20.4018 18.7705L22.4538 19.7165C22.4749 19.7283 22.4905 19.7479 22.4972 19.7711C22.504 19.7943 22.5013 19.8192 22.4898 19.8405C22.4811 19.8554 22.4687 19.8678 22.4538 19.8765L20.5118 20.7095C20.135 20.9093 19.8267 21.2176 19.6268 21.5945L18.7958 23.5325C18.7903 23.543 18.7828 23.5524 18.7737 23.56C18.7645 23.5676 18.754 23.5733 18.7426 23.5767C18.7312 23.5802 18.7193 23.5813 18.7075 23.5801C18.6957 23.5788 18.6842 23.5752 18.6738 23.5695C18.6575 23.5615 18.6442 23.5485 18.6358 23.5325L17.6898 21.4855C17.4977 21.1433 17.215 20.8606 16.8728 20.6685L14.8238 19.7185C14.8094 19.7105 14.7974 19.6989 14.7891 19.6847C14.7807 19.6705 14.7764 19.6544 14.7764 19.638C14.7764 19.6215 14.7807 19.6054 14.7891 19.5913C14.7974 19.5771 14.8094 19.5654 14.8238 19.5575L16.7668 18.7235C17.1408 18.5241 17.4469 18.2177 17.6458 17.8435Z" fill="#60CFFF"/>
<path d="M17.6458 17.8435L18.4788 15.9015C18.4906 15.8801 18.5104 15.8643 18.5339 15.8576C18.5573 15.8508 18.5825 15.8537 18.6038 15.8655C18.6186 15.874 18.6307 15.8865 18.6388 15.9015L19.5848 17.9525C19.7766 18.2952 20.0594 18.5782 20.4018 18.7705L22.4538 19.7165C22.4749 19.7283 22.4905 19.7479 22.4972 19.7711C22.504 19.7943 22.5013 19.8192 22.4898 19.8405C22.4811 19.8554 22.4687 19.8678 22.4538 19.8765L20.5118 20.7095C20.135 20.9093 19.8267 21.2176 19.6268 21.5945L18.7958 23.5325C18.7903 23.543 18.7828 23.5524 18.7737 23.56C18.7645 23.5676 18.754 23.5733 18.7426 23.5767C18.7312 23.5802 18.7193 23.5813 18.7075 23.5801C18.6957 23.5788 18.6842 23.5752 18.6738 23.5695C18.6575 23.5615 18.6442 23.5485 18.6358 23.5325L17.6898 21.4855C17.4977 21.1433 17.215 20.8606 16.8728 20.6685L14.8238 19.7185C14.8094 19.7105 14.7974 19.6989 14.7891 19.6847C14.7807 19.6705 14.7764 19.6544 14.7764 19.638C14.7764 19.6215 14.7807 19.6054 14.7891 19.5913C14.7974 19.5771 14.8094 19.5654 14.8238 19.5575L16.7668 18.7235C17.1408 18.5241 17.4469 18.2177 17.6458 17.8435Z" stroke="#60CFFF" stroke-miterlimit="10"/>
<path d="M16.0398 2.48948L16.8728 0.547474C16.8846 0.526128 16.9044 0.510344 16.9279 0.503593C16.9513 0.496843 16.9765 0.499678 16.9978 0.511475C17.0126 0.520039 17.0247 0.532492 17.0328 0.547474L17.9788 2.59847C18.1706 2.94115 18.4534 3.22422 18.7958 3.41647L20.8478 4.36247C20.8689 4.37427 20.8845 4.3939 20.8912 4.4171C20.898 4.4403 20.8953 4.46522 20.8838 4.48647C20.8751 4.50138 20.8627 4.51378 20.8478 4.52248L18.9058 5.35547C18.5289 5.55534 18.2207 5.86362 18.0208 6.24047L17.1908 8.17847C17.1853 8.18902 17.1778 8.19837 17.1687 8.20597C17.1595 8.21357 17.149 8.21926 17.1376 8.22271C17.1262 8.22615 17.1143 8.22729 17.1025 8.22605C17.0907 8.22481 17.0792 8.22121 17.0688 8.21547C17.0525 8.20751 17.0392 8.19455 17.0308 8.17847L16.0848 6.13147C15.8926 5.78932 15.61 5.50667 15.2678 5.31448L13.2188 4.36448C13.2044 4.35652 13.1924 4.34486 13.1841 4.3307C13.1758 4.31654 13.1714 4.30041 13.1714 4.28397C13.1714 4.26754 13.1758 4.25141 13.1841 4.23725C13.1924 4.22309 13.2044 4.21143 13.2188 4.20348L15.1618 3.36948C15.5358 3.17013 15.8419 2.86373 16.0408 2.48948" fill="#60CFFF"/>
<path d="M16.0398 2.48948L16.8728 0.547474C16.8846 0.526128 16.9044 0.510344 16.9279 0.503593C16.9513 0.496843 16.9765 0.499678 16.9978 0.511475C17.0126 0.520039 17.0247 0.532492 17.0328 0.547474L17.9788 2.59847C18.1706 2.94115 18.4534 3.22422 18.7958 3.41647L20.8478 4.36247C20.8689 4.37427 20.8845 4.3939 20.8912 4.4171C20.898 4.4403 20.8953 4.46522 20.8838 4.48647C20.8751 4.50138 20.8627 4.51378 20.8478 4.52248L18.9058 5.35547C18.5289 5.55534 18.2207 5.86362 18.0208 6.24047L17.1908 8.17847C17.1853 8.18902 17.1778 8.19837 17.1687 8.20597C17.1595 8.21357 17.149 8.21926 17.1376 8.22271C17.1262 8.22615 17.1143 8.22729 17.1025 8.22605C17.0907 8.22481 17.0792 8.22121 17.0688 8.21547C17.0525 8.20751 17.0392 8.19455 17.0308 8.17847L16.0848 6.13147C15.8926 5.78932 15.61 5.50667 15.2678 5.31448L13.2188 4.36448C13.2044 4.35652 13.1924 4.34486 13.1841 4.3307C13.1758 4.31654 13.1714 4.30041 13.1714 4.28397C13.1714 4.26754 13.1758 4.25141 13.1841 4.23725C13.1924 4.22309 13.2044 4.21143 13.2188 4.20348L15.1618 3.36948C15.5355 3.16997 15.8412 2.86359 16.0398 2.48948Z" stroke="#60CFFF" stroke-miterlimit="10"/>
</svg>
