<svg xmlns="http://www.w3.org/2000/svg" width="31.018" height="33.073" viewBox="0 0 31.018 33.073">
  <g id="그룹_3" data-name="그룹 3" transform="matrix(0.891, 0.454, -0.454, 0.891, 9.08, -4.028)">
    <path id="패스_8" data-name="패스 8" d="M36.617,61.607a1.406,1.406,0,0,1,1.231-.4,11.9,11.9,0,0,0,5.559-.647,4.3,4.3,0,0,0,2.767-3.42,6,6,0,0,0-3.109-5.283,29.656,29.656,0,0,0-7.888-3.647,3.42,3.42,0,0,0-3.769,1.226,30.5,30.5,0,0,0-4.168,7.038,8.808,8.808,0,0,0-.966,4.319,5.229,5.229,0,0,0,3.181,3.685,6.192,6.192,0,0,0,4.7-1,18.514,18.514,0,0,0,2.46-1.873" transform="translate(-19.646 -36.473)" fill="#60cfff"/>
    <path id="패스_9" data-name="패스 9" d="M40.1,40.927c-.824-2.531-3-4.091-4.871-3.483s-2.715,3.152-1.892,5.682,3,4.091,4.874,3.484,2.715-3.153,1.89-5.683" transform="translate(-21.2 -37.313)" fill="#60cfff"/>
    <path id="패스_10" data-name="패스 10" d="M32.615,45.689c-.135-2.494-1.736-4.435-3.575-4.334s-3.223,2.2-3.088,4.695,1.736,4.435,3.575,4.336,3.223-2.2,3.088-4.7" transform="translate(-5.785 -36.997)" fill="#60cfff"/>
    <path id="패스_11" data-name="패스 11" d="M44.849,54.081c-1.357-2.1-1.205-4.607.342-5.609s3.9-.115,5.258,1.981,1.205,4.607-.342,5.609-3.9.115-5.258-1.981" transform="translate(-43.923 -36.473)" fill="#60cfff"/>
    <path id="패스_12" data-name="패스 12" d="M47.65,43.384c-.824-2.531-3.005-4.091-4.872-3.483s-2.714,3.152-1.891,5.682,3.005,4.091,4.872,3.484,2.715-3.153,1.891-5.683" transform="translate(-36.899 -37.121)" fill="#60cfff"/>
  </g>
</svg>
