<svg width="24" height="24" viewBox="0 0 24 24" fill="none" xmlns="http://www.w3.org/2000/svg">
<path d="M0.977361 10.7366L10.9924 0.878628C11.1744 0.700044 11.4193 0.600006 11.6744 0.600006C11.9294 0.600006 12.1743 0.700044 12.3564 0.878628L22.4994 10.7786C22.6794 10.9546 22.8029 11.1802 22.8541 11.4267C22.9054 11.6732 22.882 11.9294 22.7871 12.1625C22.6921 12.3957 22.5299 12.5953 22.321 12.7358C22.1121 12.8764 21.8661 12.9515 21.6144 12.9516H20.3374V21.0626C20.3374 21.5793 20.1321 22.0748 19.7668 22.4401C19.4015 22.8054 18.906 23.0106 18.3894 23.0106H15.1494C15.0202 23.0106 14.8963 22.9593 14.805 22.868C14.7137 22.7767 14.6624 22.6528 14.6624 22.5236V17.0606C14.6624 16.6472 14.4981 16.2506 14.2057 15.9582C13.9134 15.6659 13.5168 15.5016 13.1034 15.5016H10.3774C10.1727 15.5016 9.96999 15.542 9.7809 15.6203C9.59181 15.6987 9.42002 15.8135 9.27533 15.9583C9.13065 16.1031 9.0159 16.275 8.93766 16.4641C8.85943 16.6532 8.81922 16.8559 8.81936 17.0606V22.5256C8.81909 22.6549 8.76756 22.7787 8.67608 22.87C8.58459 22.9613 8.46061 23.0126 8.33136 23.0126H5.19436C4.93846 23.0128 4.68504 22.9625 4.44858 22.8646C4.21213 22.7668 3.99726 22.6233 3.81627 22.4424C3.63527 22.2615 3.49169 22.0467 3.39374 21.8103C3.29578 21.5739 3.24536 21.3205 3.24536 21.0646V12.9236L1.88436 12.9056C1.63156 12.9091 1.38351 12.8368 1.17211 12.6982C0.960707 12.5595 0.795623 12.3608 0.698087 12.1275C0.600552 11.8943 0.575031 11.6372 0.624799 11.3893C0.674567 11.1415 0.797351 10.9141 0.977361 10.7366Z" fill="#60CFFF"/>
<path d="M0.977361 10.7366L10.9924 0.878628C11.1744 0.700044 11.4193 0.600006 11.6744 0.600006C11.9294 0.600006 12.1743 0.700044 12.3564 0.878628L22.4994 10.7786C22.6794 10.9546 22.8029 11.1802 22.8541 11.4267C22.9054 11.6732 22.882 11.9294 22.7871 12.1625C22.6921 12.3957 22.5299 12.5953 22.321 12.7358C22.1121 12.8764 21.8661 12.9515 21.6144 12.9516H20.3374V21.0626C20.3374 21.5793 20.1321 22.0748 19.7668 22.4401C19.4015 22.8054 18.906 23.0106 18.3894 23.0106H15.1494C15.0202 23.0106 14.8963 22.9593 14.805 22.868C14.7137 22.7767 14.6624 22.6528 14.6624 22.5236V17.0606C14.6624 16.6472 14.4981 16.2506 14.2057 15.9582C13.9134 15.6659 13.5168 15.5016 13.1034 15.5016H10.3774C10.1727 15.5016 9.96999 15.542 9.7809 15.6203C9.59181 15.6987 9.42002 15.8135 9.27533 15.9583C9.13065 16.1031 9.0159 16.275 8.93766 16.4641C8.85943 16.6532 8.81922 16.8559 8.81936 17.0606V22.5256C8.81909 22.6549 8.76756 22.7787 8.67608 22.87C8.58459 22.9614 8.46061 23.0126 8.33136 23.0126H5.19436C4.93846 23.0128 4.68504 22.9625 4.44858 22.8646C4.21213 22.7668 3.99726 22.6233 3.81627 22.4424C3.63527 22.2615 3.49169 22.0467 3.39374 21.8103C3.29578 21.5739 3.24536 21.3205 3.24536 21.0646V12.9236L1.88436 12.9056C1.63156 12.9091 1.38351 12.8368 1.17211 12.6982C0.960707 12.5595 0.795623 12.3608 0.698087 12.1275C0.600552 11.8943 0.575031 11.6372 0.624799 11.3893C0.674567 11.1415 0.797351 10.9141 0.977361 10.7366Z" stroke="#60CFFF" stroke-width="1.2" stroke-miterlimit="10"/>
</svg>
