<svg width="24" height="24" viewBox="0 0 24 24" fill="none" xmlns="http://www.w3.org/2000/svg">
<path d="M0.98046 10.7366L10.9955 0.878627C11.1775 0.700044 11.4224 0.600006 11.6775 0.600006C11.9325 0.600006 12.1774 0.700044 12.3595 0.878627L22.5025 10.7786C22.6826 10.9545 22.8063 11.1801 22.8576 11.4265C22.9089 11.673 22.8856 11.9292 22.7906 12.1623C22.6956 12.3955 22.5332 12.595 22.3243 12.7354C22.1153 12.8759 21.8692 12.9508 21.6175 12.9506H20.3405V21.0626C20.3405 21.5793 20.1352 22.0747 19.7699 22.4401C19.4046 22.8054 18.9091 23.0106 18.3925 23.0106H15.1525C15.0233 23.0106 14.8994 22.9593 14.8081 22.868C14.7168 22.7767 14.6655 22.6528 14.6655 22.5236V17.0606C14.6655 16.6472 14.5012 16.2506 14.2088 15.9582C13.9165 15.6659 13.5199 15.5016 13.1065 15.5016H10.3805C10.1758 15.5016 9.97309 15.542 9.784 15.6203C9.59491 15.6987 9.42312 15.8135 9.27843 15.9583C9.13375 16.1031 9.019 16.275 8.94076 16.4641C8.86253 16.6532 8.82232 16.8559 8.82246 17.0606V22.5266C8.82219 22.6559 8.77066 22.7797 8.67918 22.871C8.58769 22.9624 8.46371 23.0136 8.33446 23.0136H5.19746C4.94156 23.0138 4.68814 22.9635 4.45168 22.8656C4.21522 22.7678 4.00036 22.6243 3.81937 22.4434C3.63837 22.2625 3.49479 22.0477 3.39683 21.8113C3.29888 21.5749 3.24846 21.3215 3.24846 21.0656V12.9266L1.88746 12.9086C1.63404 12.9127 1.38522 12.8407 1.17315 12.7019C0.96108 12.5631 0.795517 12.3639 0.697852 12.13C0.600187 11.8961 0.574909 11.6383 0.625289 11.3899C0.675669 11.1416 0.799389 10.914 0.98046 10.7366Z" stroke="#626A75" stroke-width="1.2" stroke-miterlimit="10"/>
</svg>
