<svg width="24" height="22" viewBox="0 0 24 22" fill="none" xmlns="http://www.w3.org/2000/svg">
<path d="M12.3819 19.8545C12.2307 19.7883 12.0669 19.756 11.9019 19.7598C11.737 19.7636 11.5748 19.8034 11.4269 19.8765C10.1712 20.4974 8.78549 20.8097 7.38488 20.7875C6.82506 20.7775 6.27767 20.6208 5.79738 20.333C5.3171 20.0452 4.92073 19.6364 4.64786 19.1475C4.62429 19.1006 4.60392 19.0522 4.58687 19.0025C4.34506 18.2572 4.30087 17.4618 4.45862 16.6942C4.61638 15.9266 4.97068 15.2131 5.48687 14.6235C6.79703 12.9103 8.35279 11.3997 10.1039 10.1405C10.5363 9.85304 11.0414 9.69405 11.5605 9.68201C12.0797 9.66998 12.5916 9.80538 13.0369 10.0725C14.7498 11.1588 16.3088 12.4705 17.6719 13.9725C18.466 14.7286 19.0591 15.6707 19.3979 16.7135C19.4041 16.7429 19.4088 16.7726 19.4119 16.8025C19.4702 17.3993 19.3892 18.0015 19.1752 18.5616C18.9612 19.1218 18.6202 19.6246 18.1789 20.0305C18.1029 20.0947 18.0209 20.1513 17.9339 20.1995C16.8904 20.7284 15.6891 20.8558 14.5579 20.5575C13.8152 20.3857 13.0883 20.1515 12.3849 19.8575L12.3819 19.8545Z" fill="#60CFFF"/>
<path d="M12.3819 19.8545C12.2307 19.7883 12.0669 19.756 11.9019 19.7598C11.737 19.7636 11.5748 19.8034 11.4269 19.8765C10.1712 20.4974 8.78549 20.8097 7.38488 20.7875C6.82506 20.7775 6.27767 20.6208 5.79738 20.333C5.3171 20.0452 4.92073 19.6365 4.64786 19.1475C4.62429 19.1006 4.60392 19.0522 4.58687 19.0025C4.34506 18.2572 4.30087 17.4618 4.45862 16.6942C4.61638 15.9266 4.97068 15.2131 5.48687 14.6235C6.79703 12.9103 8.35279 11.3997 10.1039 10.1405C10.5363 9.85304 11.0414 9.69405 11.5605 9.68201C12.0797 9.66998 12.5916 9.80538 13.0369 10.0725C14.7498 11.1588 16.3088 12.4705 17.6719 13.9725C18.466 14.7286 19.0591 15.6707 19.3979 16.7135C19.4041 16.7429 19.4088 16.7726 19.4119 16.8025C19.4702 17.3993 19.3892 18.0015 19.1752 18.5616C18.9612 19.1218 18.6202 19.6246 18.1789 20.0305C18.1029 20.0947 18.0209 20.1513 17.9339 20.1995C16.8904 20.7284 15.6891 20.8558 14.5579 20.5575C13.8152 20.3857 13.0883 20.1515 12.3849 19.8575L12.3819 19.8545Z" stroke="#60CFFF" stroke-width="1.2" stroke-miterlimit="10"/>
<path d="M5.83586 4.39353C5.79286 2.41153 6.93587 0.782533 8.39687 0.749533C9.85787 0.716533 11.0769 2.29053 11.1239 4.27153C11.1709 6.25253 10.0239 7.88153 8.56186 7.91653C7.09986 7.95153 5.87986 6.37253 5.83586 4.39353Z" fill="#60CFFF"/>
<path d="M5.83586 4.39353C5.79286 2.41153 6.93587 0.782533 8.39687 0.749533C9.85787 0.716533 11.0769 2.29053 11.1239 4.27153C11.1709 6.25253 10.0239 7.88153 8.56186 7.91653C7.09986 7.95153 5.87986 6.37253 5.83586 4.39353Z" stroke="#60CFFF" stroke-width="1.2" stroke-miterlimit="10"/>
<path d="M0.779863 10.3755C0.259863 8.59255 0.905872 6.83555 2.22087 6.45255C3.53587 6.06955 5.02086 7.20355 5.54486 8.98555C6.06886 10.7675 5.41887 12.5255 4.10387 12.9095C2.78887 13.2935 1.29886 12.1585 0.779863 10.3725" fill="#60CFFF"/>
<path d="M0.779863 10.3755C0.259863 8.59255 0.905872 6.83555 2.22087 6.45255C3.53587 6.06955 5.02086 7.20355 5.54486 8.98555C6.06886 10.7675 5.41887 12.5255 4.10387 12.9095C2.78887 13.2935 1.29886 12.1585 0.779863 10.3725" stroke="#60CFFF" stroke-width="1.2" stroke-miterlimit="10"/>
<path d="M23.0419 10.1515C22.5229 11.9365 21.0329 13.0715 19.7179 12.6875C18.4029 12.3035 17.7579 10.5465 18.2769 8.76455C18.7959 6.98255 20.2859 5.84755 21.6009 6.23055C22.9159 6.61355 23.5619 8.37054 23.0419 10.1545" fill="#60CFFF"/>
<path d="M23.0419 10.1515C22.5229 11.9365 21.0329 13.0715 19.7179 12.6875C18.4029 12.3035 17.7579 10.5465 18.2769 8.76455C18.7959 6.98255 20.2859 5.84755 21.6009 6.23055C22.9159 6.61355 23.5619 8.37055 23.0419 10.1545" stroke="#60CFFF" stroke-width="1.2" stroke-miterlimit="10"/>
<path d="M12.6729 4.24452C12.6289 2.26552 13.7729 0.633516 15.2339 0.600516C16.6949 0.567516 17.9139 2.14152 17.9599 4.12252C18.0059 6.10352 16.8599 7.73252 15.3989 7.76752C13.9379 7.80252 12.7179 6.22352 12.6729 4.24452Z" fill="#60CFFF"/>
<path d="M12.6729 4.24452C12.6289 2.26552 13.7729 0.633516 15.2339 0.600516C16.6949 0.567516 17.9139 2.14152 17.9599 4.12252C18.0059 6.10352 16.8599 7.73252 15.3989 7.76752C13.9379 7.80252 12.7179 6.22352 12.6729 4.24452Z" stroke="#60CFFF" stroke-width="1.2" stroke-miterlimit="10"/>
</svg>
