<svg width="22" height="22" viewBox="0 0 22 22" fill="none" xmlns="http://www.w3.org/2000/svg">
<path d="M10.9607 0.600006C9.14514 0.600526 7.36244 1.0843 5.7957 2.00164C4.22895 2.91899 2.93462 4.23684 2.04563 5.81985C1.15665 7.40286 0.705054 9.19398 0.737224 11.0092C0.769394 12.8245 1.28418 14.5985 2.22869 16.149L0.628689 20.608C0.597976 20.6947 0.591786 20.7883 0.610805 20.8783C0.629825 20.9683 0.673322 21.0513 0.736492 21.1182C0.799662 21.1851 0.880054 21.2333 0.968837 21.2574C1.05762 21.2815 1.15135 21.2807 1.2397 21.255L6.05969 19.79C7.42661 20.537 8.94619 20.9617 10.5023 21.0317C12.0585 21.1016 13.6101 20.815 15.0385 20.1936C16.4669 19.5722 17.7344 18.6326 18.7442 17.4464C19.7539 16.2603 20.4792 14.859 20.8646 13.3497C21.2499 11.8404 21.2853 10.263 20.9678 8.73795C20.6503 7.21292 19.9885 5.78062 19.0328 4.55048C18.0772 3.32035 16.853 2.32492 15.4538 1.64024C14.0546 0.955564 12.5174 0.599759 10.9597 0.600006" fill="#60CFFF"/>
<path d="M10.9607 0.600006C9.14514 0.600526 7.36244 1.0843 5.7957 2.00164C4.22895 2.91899 2.93462 4.23684 2.04563 5.81985C1.15665 7.40286 0.705054 9.19398 0.737224 11.0092C0.769394 12.8245 1.28418 14.5985 2.22869 16.149L0.628689 20.608C0.597976 20.6947 0.591786 20.7883 0.610805 20.8783C0.629825 20.9683 0.673322 21.0513 0.736492 21.1182C0.799662 21.1851 0.880054 21.2333 0.968837 21.2574C1.05762 21.2815 1.15135 21.2807 1.2397 21.255L6.05969 19.79C7.42661 20.537 8.94619 20.9617 10.5023 21.0317C12.0585 21.1016 13.6101 20.815 15.0385 20.1936C16.4669 19.5722 17.7344 18.6326 18.7442 17.4464C19.7539 16.2603 20.4792 14.859 20.8646 13.3497C21.2499 11.8404 21.2853 10.263 20.9678 8.73795C20.6503 7.21292 19.9885 5.78062 19.0328 4.55048C18.0772 3.32035 16.853 2.32492 15.4538 1.64024C14.0546 0.955564 12.5174 0.599759 10.9597 0.600006H10.9607Z" stroke="#60CFFF" stroke-width="1.2" stroke-miterlimit="10"/>
<path d="M7.6727 11.117C7.6727 11.3369 7.60748 11.5519 7.4853 11.7348C7.36311 11.9177 7.18943 12.0602 6.98624 12.1444C6.78305 12.2285 6.55946 12.2505 6.34376 12.2076C6.12805 12.1647 5.9299 12.0588 5.77439 11.9033C5.61887 11.7478 5.51297 11.5497 5.47007 11.3339C5.42716 11.1182 5.44918 10.8947 5.53335 10.6915C5.61751 10.4883 5.76004 10.3146 5.94291 10.1924C6.12577 10.0702 6.34077 10.005 6.5607 10.005C6.85563 10.005 7.13846 10.1222 7.34701 10.3307C7.55555 10.5392 7.6727 10.8221 7.6727 11.117Z" fill="white"/>
<path d="M12.1927 11.117C12.1925 11.3367 12.1272 11.5513 12.005 11.7339C11.8829 11.9164 11.7094 12.0587 11.5064 12.1426C11.3034 12.2266 11.0801 12.2485 10.8647 12.2056C10.6493 12.1627 10.4514 12.0569 10.2961 11.9016C10.1408 11.7463 10.035 11.5484 9.9921 11.333C9.9492 11.1176 9.97111 10.8943 10.0551 10.6913C10.139 10.4883 10.2813 10.3148 10.4638 10.1927C10.6464 10.0705 10.861 10.0052 11.0807 10.005C11.3756 10.005 11.6585 10.1222 11.867 10.3307C12.0755 10.5392 12.1927 10.8221 12.1927 11.117Z" fill="white"/>
<path d="M16.6837 11.117C16.6833 11.3367 16.6178 11.5513 16.4955 11.7337C16.3732 11.9161 16.1995 12.0582 15.9965 12.142C15.7934 12.2258 15.5701 12.2475 15.3547 12.2044C15.1393 12.1613 14.9416 12.0553 14.7864 11.8999C14.6312 11.7444 14.5256 11.5465 14.4829 11.331C14.4402 11.1156 14.4623 10.8923 14.5465 10.6894C14.6306 10.4865 14.773 10.3131 14.9557 10.1911C15.1383 10.0691 15.353 10.004 15.5727 10.004C15.8676 10.004 16.1505 10.1212 16.359 10.3297C16.5675 10.5382 16.6847 10.8211 16.6847 11.116" fill="white"/>
</svg>
