<svg width="11" height="10" viewBox="0 0 11 10" fill="none" xmlns="http://www.w3.org/2000/svg">
<path d="M6.7607 7.98971C10.3607 5.23171 10.3377 3.48471 10.3377 3.48471C10.3994 3.03976 10.3577 2.58657 10.2156 2.16041C10.0736 1.73425 9.83506 1.34662 9.5187 1.02771C7.8527 -0.610287 5.8327 1.02771 5.8327 1.02771C5.8327 1.02771 5.4597 1.32771 5.3237 1.32771C5.1877 1.32771 4.8327 1.02771 4.8327 1.02771C4.8327 1.02771 2.8117 -0.610287 1.1467 1.02771C0.830329 1.34662 0.591835 1.73425 0.449782 2.16041C0.307728 2.58657 0.265949 3.03976 0.327696 3.48471C0.327696 3.48471 0.300696 5.23171 3.9047 7.98971C4.34042 8.32579 4.82153 8.59849 5.3337 8.79971C5.84516 8.59832 6.32559 8.32563 6.7607 7.98971Z" stroke="#8A8F99" stroke-width="0.6" stroke-miterlimit="10"/>
</svg>
