<svg width="22" height="19" viewBox="0 0 22 19" fill="none" xmlns="http://www.w3.org/2000/svg">
<path d="M13.7349 16.2642C21.0059 10.7012 20.9509 7.17516 20.9509 7.17516C21.0609 3.54016 19.2979 2.21816 19.2979 2.21816C15.9379 -1.08684 11.8619 2.21816 11.8619 2.21816C11.8619 2.21816 11.1099 2.82416 10.8349 2.82416C10.5599 2.82416 9.84394 2.21816 9.84394 2.21816C9.84394 2.21816 5.76694 -1.08684 2.40794 2.21816C2.40794 2.21816 0.644941 3.53916 0.754941 7.17516C0.754941 7.17516 0.699941 10.7002 7.97094 16.2642C7.97094 16.2642 10.2289 17.8982 10.8529 17.8982C11.4769 17.8982 13.7349 16.2642 13.7349 16.2642Z" stroke="#111111" stroke-width="1.5" stroke-miterlimit="10"/>
</svg>
