<svg width="22" height="19" viewBox="0 0 22 19" fill="none" xmlns="http://www.w3.org/2000/svg">
<g clip-path="url(#clip0_297_164)">
<path d="M13.736 16.276C21.007 10.713 20.952 7.187 20.952 7.187C21.062 3.552 19.299 2.23 19.299 2.23C15.939 -1.075 11.863 2.23 11.863 2.23C11.863 2.23 11.111 2.836 10.836 2.836C10.561 2.836 9.84501 2.23 9.84501 2.23C9.84501 2.23 5.76801 -1.075 2.40901 2.23C2.40901 2.23 0.64601 3.551 0.75601 7.187C0.75601 7.187 0.701009 10.712 7.97201 16.276C7.97201 16.276 10.23 17.91 10.854 17.91C11.478 17.91 13.736 16.276 13.736 16.276Z" fill="#60CFFF" stroke="#60CFFF" stroke-width="1.5" stroke-miterlimit="10"/>
</g>
<defs>
<clipPath id="clip0_297_164">
<rect width="21.709" height="18.66" fill="white"/>
</clipPath>
</defs>
</svg>
