<svg width="20" height="20" viewBox="0 0 20 20" fill="none" xmlns="http://www.w3.org/2000/svg">
<g clip-path="url(#clip0_296_391)">
<g opacity="0.22">
<mask id="mask0_296_391" style="mask-type:luminance" maskUnits="userSpaceOnUse" x="0" y="0" width="21" height="20">
<path d="M20.001 0H0.00100708V20H20.001V0Z" fill="white"/>
</mask>
<g mask="url(#mask0_296_391)">
<path d="M20.001 0H0.00100708V20H20.001V0Z" fill="white"/>
</g>
</g>
<path d="M14.656 5.596C13.2742 4.669 11.6626 4.1432 10 4.077C5.951 4.077 2.22599 7.958 0.934994 9.462C0.794757 9.62522 0.717651 9.8333 0.717651 10.0485C0.717651 10.2637 0.794757 10.4718 0.934994 10.635C2.30588 12.2518 3.92916 13.6363 5.742 14.735" stroke="#E5E5EA" stroke-width="1.3" stroke-miterlimit="10"/>
<path d="M7.17999 15.45C8.07533 15.8171 9.03235 16.0106 9.99999 16.02C14.049 16.02 17.774 12.14 19.066 10.635C19.206 10.4718 19.2829 10.264 19.2829 10.049C19.2829 9.83402 19.206 9.62615 19.066 9.463C18.2931 8.56514 17.449 7.7311 16.542 6.96899" stroke="#E5E5EA" stroke-width="1.3" stroke-miterlimit="10" stroke-linecap="round"/>
<path d="M17.079 3.54401L3.604 16.456" stroke="#E5E5EA" stroke-width="1.3" stroke-miterlimit="10" stroke-linecap="round"/>
<path d="M11.972 8.09701C11.7121 7.83389 11.4024 7.62503 11.0611 7.48258C10.7198 7.34012 10.3535 7.2669 9.98366 7.26718C9.61379 7.26746 9.24767 7.34122 8.90655 7.48419C8.56543 7.62716 8.25611 7.83648 7.99657 8.1C7.73703 8.36351 7.53243 8.67597 7.39466 9.01923C7.25689 9.36248 7.1887 9.72969 7.19405 10.0995C7.19939 10.4693 7.27816 10.8344 7.42579 11.1736C7.57341 11.5127 7.78695 11.8191 8.054 12.075" stroke="#E5E5EA" stroke-width="1.3" stroke-miterlimit="10"/>
</g>
<defs>
<clipPath id="clip0_296_391">
<rect width="20" height="20" fill="white"/>
</clipPath>
</defs>
</svg>
