<svg width="17" height="17" viewBox="0 0 17 17" fill="none" xmlns="http://www.w3.org/2000/svg">
<path d="M8.24066 10.0927C9.03357 10.5287 9.9482 10.6909 10.8427 10.554C11.7371 10.4171 12.5614 9.98889 13.1877 9.33574L14.5767 7.92474C16.3387 6.13574 16.7817 3.67774 15.0197 1.88774C14.6104 1.47823 14.1213 1.15725 13.5827 0.944747C13.0442 0.73224 12.4677 0.632744 11.889 0.652438C11.3104 0.672132 10.742 0.810596 10.2192 1.05923C9.69629 1.30786 9.23014 1.66135 8.84966 2.09774L8.15666 2.79274" stroke="#60CFFF" stroke-width="1.3" stroke-miterlimit="10" stroke-linecap="round"/>
<path d="M8.54966 6.58174C7.75675 6.14574 6.84212 5.9836 5.94766 6.12048C5.0532 6.25735 4.22891 6.68558 3.60266 7.33874L2.21366 8.74974C0.451663 10.5387 0.0086621 12.9967 1.77066 14.7867C2.17993 15.1962 2.66904 15.5172 3.20759 15.7297C3.74615 15.9422 4.32265 16.0417 4.90128 16.022C5.47991 16.0023 6.04831 15.8639 6.57117 15.6152C7.09403 15.3666 7.56018 15.0131 7.94066 14.5767L8.63566 13.8767" stroke="#60CFFF" stroke-width="1.3" stroke-miterlimit="10" stroke-linecap="round"/>
</svg>
