<svg xmlns="http://www.w3.org/2000/svg" xmlns:xlink="http://www.w3.org/1999/xlink" width="93.421" height="24" viewBox="0 0 93.421 24">
  <defs>
    <clipPath id="clip-path">
      <rect id="사각형_310" data-name="사각형 310" width="93.421" height="24" fill="none"/>
    </clipPath>
  </defs>
  <g id="그룹_112" data-name="그룹 112" transform="translate(0 0)">
    <g id="그룹_98" data-name="그룹 98" transform="translate(0 0)" clip-path="url(#clip-path)">
      <path id="패스_93" data-name="패스 93" d="M97.667,14.3a12.017,12.017,0,0,1-24.02,0,12.017,12.017,0,0,1,24.02,0" transform="translate(-51.802 -1.901)" fill="#35b1ef"/>
      <path id="패스_94" data-name="패스 94" d="M93.363,11.6a12.017,12.017,0,0,1-24.02,0,12.017,12.017,0,0,1,24.02,0" transform="translate(-48.775 0)" fill="#60cfff"/>
      <path id="패스_95" data-name="패스 95" d="M92.388,39.975a.788.788,0,0,0-.632-.205,6.127,6.127,0,0,1-2.862-.333,2.22,2.22,0,0,1-1.418-1.706.794.794,0,0,1-.007-.109,3.148,3.148,0,0,1,1.6-2.665,15.261,15.261,0,0,1,4.061-1.877,1.909,1.909,0,0,1,1.94.631,15.7,15.7,0,0,1,2.146,3.623,4.586,4.586,0,0,1,.5,2.2c0,.022-.007.043-.013.064a2.69,2.69,0,0,1-1.552,1.833,1.056,1.056,0,0,1-.2.055,3.324,3.324,0,0,1-2.3-.54,9.481,9.481,0,0,1-1.264-.962Z" transform="translate(-61.525 -23.226)" fill="#fff"/>
      <path id="패스_96" data-name="패스 96" d="M100.331,14.707c.425-1.3,1.547-2.106,2.508-1.793s1.4,1.621.974,2.925-1.547,2.106-2.509,1.793-1.4-1.623-.973-2.926" transform="translate(-70.457 -9.036)" fill="#fff"/>
      <path id="패스_97" data-name="패스 97" d="M86.935,22.633c.069-1.284.894-2.283,1.841-2.232s1.659,1.133,1.59,2.417-.894,2.283-1.841,2.232-1.659-1.133-1.59-2.418" transform="translate(-61.145 -14.348)" fill="#fff"/>
      <path id="패스_98" data-name="패스 98" d="M123.936,36.055a2.094,2.094,0,0,0-.176-2.888,2.093,2.093,0,0,0-2.707,1.02,2.093,2.093,0,0,0,.176,2.888,2.093,2.093,0,0,0,2.707-1.02" transform="translate(-84.811 -23.18)" fill="#fff"/>
      <path id="패스_99" data-name="패스 99" d="M114.467,19.3c.425-1.3,1.547-2.106,2.508-1.793s1.4,1.621.973,2.925-1.547,2.106-2.508,1.793-1.4-1.623-.973-2.926" transform="translate(-80.4 -12.27)" fill="#fff"/>
      <path id="패스_100" data-name="패스 100" d="M16.273.007H8.315A14,14,0,0,0,3.3.979a3.7,3.7,0,0,0-.425.265A6.928,6.928,0,0,0,.649,3.611,10.861,10.861,0,0,0,0,7.379V18.795s.064,2.712,1.006,3.629a6.312,6.312,0,0,0,4.158,1.569,5.079,5.079,0,0,0,2.243-.356,3.477,3.477,0,0,0,2.271-3.314S9.69,16.6,9.524,15.2l4.138.025a6.469,6.469,0,0,0,1.91-.331A3.643,3.643,0,0,0,17.6,12.027a5.128,5.128,0,0,0-.066-1.211,2.258,2.258,0,0,0-.574-1.189A1.664,1.664,0,0,0,15.8,9.086l-7.169.038A.459.459,0,0,1,8.149,8.6V6.778A.332.332,0,0,1,8.5,6.473h9.316a3.06,3.06,0,0,0,.651-.068,2.193,2.193,0,0,0,1.085-.524,3.786,3.786,0,0,0,1.184-2.865A2.813,2.813,0,0,0,19.593.6,6.5,6.5,0,0,0,16.273.007" transform="translate(0 -0.005)" fill="#60cfff"/>
      <path id="패스_101" data-name="패스 101" d="M16.788,38.867a3.691,3.691,0,0,1-2.044.9L8.9,39.841a32.118,32.118,0,0,1,.458,3.387l.111,1.553a3.368,3.368,0,0,1-1.524,2.992,1.256,1.256,0,0,1-1.248.115s-.185-.064-.216-.6A2.45,2.45,0,0,0,5.4,45.367s-.14-.064-.051.147a2.291,2.291,0,0,1,.439,1.821,1.378,1.378,0,0,1-1.464,1.254A3.71,3.71,0,0,1,.58,45.849a3.991,3.991,0,0,0,.833,2.027,6.3,6.3,0,0,0,4.133,1.568,5.149,5.149,0,0,0,1.948-.209,3.876,3.876,0,0,0,2.8-3.584,23.573,23.573,0,0,0-.359-5l4.138.025a6.468,6.468,0,0,0,1.91-.331A3.643,3.643,0,0,0,18,37.479a5.167,5.167,0,0,0-.081-1.287,3.26,3.26,0,0,1-1.135,2.675" transform="translate(-0.408 -25.457)" fill="#35b1ef"/>
      <path id="패스_102" data-name="패스 102" d="M176.9.007h-7.958a14,14,0,0,0-5.019.972,3.7,3.7,0,0,0-.425.265,6.928,6.928,0,0,0-2.222,2.366,10.861,10.861,0,0,0-.649,3.769V18.795s.064,2.712,1.006,3.629a6.312,6.312,0,0,0,4.158,1.569,5.079,5.079,0,0,0,2.243-.356,3.477,3.477,0,0,0,2.271-3.314s.013-3.724-.153-5.125l4.138.025a6.469,6.469,0,0,0,1.91-.331,3.643,3.643,0,0,0,2.025-2.865,5.127,5.127,0,0,0-.066-1.211,2.258,2.258,0,0,0-.574-1.189,1.665,1.665,0,0,0-1.155-.541l-7.169.038a.459.459,0,0,1-.484-.522V6.778a.332.332,0,0,1,.353-.305h9.316A3.061,3.061,0,0,0,179.1,6.4a2.193,2.193,0,0,0,1.085-.524,3.786,3.786,0,0,0,1.184-2.865A2.813,2.813,0,0,0,180.218.6,6.5,6.5,0,0,0,176.9.007" transform="translate(-112.981 -0.005)" fill="#60cfff"/>
      <path id="패스_103" data-name="패스 103" d="M177.414,38.867a3.691,3.691,0,0,1-2.044.9l-5.845.077a32.122,32.122,0,0,1,.458,3.387l.111,1.553a3.368,3.368,0,0,1-1.524,2.992,1.256,1.256,0,0,1-1.248.115s-.185-.064-.216-.6a2.45,2.45,0,0,0-1.082-1.923s-.14-.064-.051.147a2.291,2.291,0,0,1,.439,1.821,1.378,1.378,0,0,1-1.464,1.254,3.71,3.71,0,0,1-3.742-2.74,3.991,3.991,0,0,0,.833,2.027,6.3,6.3,0,0,0,4.133,1.568,5.149,5.149,0,0,0,1.948-.209,3.876,3.876,0,0,0,2.8-3.584,23.574,23.574,0,0,0-.359-5l4.138.025a6.468,6.468,0,0,0,1.91-.331,3.643,3.643,0,0,0,2.025-2.865,5.165,5.165,0,0,0-.081-1.287,3.26,3.26,0,0,1-1.135,2.675" transform="translate(-113.389 -25.457)" fill="#35b1ef"/>
      <path id="패스_104" data-name="패스 104" d="M245.985,2.7a11.81,11.81,0,0,0-12.01,11.6,12.017,12.017,0,0,0,24.02,0,11.809,11.809,0,0,0-12.01-11.6m-1.277,15.826A5.12,5.12,0,0,1,239.5,13.5a5.21,5.21,0,0,1,10.414,0,5.12,5.12,0,0,1-5.207,5.029" transform="translate(-164.574 -1.901)" fill="#35b1ef"/>
      <path id="패스_105" data-name="패스 105" d="M241.681,0a11.809,11.809,0,0,0-12.01,11.6,12.017,12.017,0,0,0,24.02,0A11.81,11.81,0,0,0,241.681,0m0,16.628a5.12,5.12,0,0,1-5.207-5.029,5.21,5.21,0,0,1,10.414,0,5.12,5.12,0,0,1-5.207,5.029" transform="translate(-161.546 0)" fill="#60cfff"/>
    </g>
  </g>
</svg>
