<svg xmlns="http://www.w3.org/2000/svg" xmlns:xlink="http://www.w3.org/1999/xlink" width="194.627" height="50" viewBox="0 0 194.627 50">
  <defs>
    <clipPath id="clip-path">
      <rect id="사각형_310" data-name="사각형 310" width="194.627" height="50" fill="none"/>
    </clipPath>
  </defs>
  <g id="그룹_113" data-name="그룹 113" transform="translate(0 0)">
    <g id="그룹_98" data-name="그룹 98" transform="translate(0 0)" clip-path="url(#clip-path)">
      <path id="패스_93" data-name="패스 93" d="M123.688,26.868c0,13.345-11.2,24.165-25.02,24.165S73.647,40.213,73.647,26.868,84.849,2.7,98.668,2.7s25.02,10.819,25.02,24.165" transform="translate(-28.136 -1.033)" fill="#35b1ef"/>
      <path id="패스_94" data-name="패스 94" d="M119.384,24.165c0,13.345-11.2,24.165-25.02,24.165S69.343,37.51,69.343,24.165,80.545,0,94.364,0s25.02,10.819,25.02,24.165" transform="translate(-26.492 0)" fill="#fff"/>
      <path id="패스_95" data-name="패스 95" d="M97.715,47.508a1.641,1.641,0,0,0-1.316-.428,12.765,12.765,0,0,1-5.963-.694,4.626,4.626,0,0,1-2.953-3.554,1.653,1.653,0,0,1-.014-.228A6.558,6.558,0,0,1,90.8,37.052a31.794,31.794,0,0,1,8.46-3.91,3.978,3.978,0,0,1,4.041,1.315A32.7,32.7,0,0,1,107.775,42a9.554,9.554,0,0,1,1.045,4.574c-.007.046-.015.089-.027.134a5.6,5.6,0,0,1-3.233,3.818,2.2,2.2,0,0,1-.415.114,6.925,6.925,0,0,1-4.789-1.125,19.758,19.758,0,0,1-2.634-2Z" transform="translate(-33.417 -12.616)" fill="#60cfff"/>
      <path id="패스_96" data-name="패스 96" d="M100.508,16.723c.886-2.713,3.223-4.387,5.224-3.735s2.912,3.377,2.029,6.094-3.223,4.387-5.227,3.736-2.912-3.381-2.027-6.1" transform="translate(-38.269 -4.908)" fill="#60cfff"/>
      <path id="패스_97" data-name="패스 97" d="M86.94,25.053c.145-2.675,1.862-4.756,3.834-4.651s3.457,2.361,3.312,5.035-1.862,4.756-3.834,4.651S86.8,27.727,86.94,25.05" transform="translate(-33.211 -7.793)" fill="#60cfff"/>
      <path id="패스_98" data-name="패스 98" d="M127.575,39.413c1.455-2.248,1.293-4.941-.366-6.016s-4.184-.123-5.639,2.125-1.293,4.941.366,6.016,4.184.124,5.639-2.125" transform="translate(-46.065 -12.591)" fill="#60cfff"/>
      <path id="패스_99" data-name="패스 99" d="M114.643,21.32c.886-2.713,3.223-4.387,5.225-3.735s2.911,3.377,2.028,6.094-3.223,4.387-5.225,3.736-2.912-3.381-2.028-6.1" transform="translate(-43.67 -6.664)" fill="#60cfff"/>
      <path id="패스_100" data-name="패스 100" d="M33.9.007H17.323s-6.7.075-10.455,2.026a7.705,7.705,0,0,0-.885.553c-1.1.777-3.663,2.749-4.63,4.929A22.626,22.626,0,0,0,0,15.366V39.148s.133,5.651,2.1,7.56c0,0,2.744,2.945,8.662,3.27a10.581,10.581,0,0,0,4.672-.742,7.244,7.244,0,0,0,4.731-6.905s.027-7.758-.318-10.676l8.622.053a13.477,13.477,0,0,0,3.979-.69s4.059-1.91,4.218-5.969a10.684,10.684,0,0,0-.138-2.522,4.7,4.7,0,0,0-1.2-2.477,3.468,3.468,0,0,0-2.407-1.128L17.986,19a.957.957,0,0,1-1.008-1.088v-3.8a.692.692,0,0,1,.736-.636H37.121a6.376,6.376,0,0,0,1.356-.142,4.569,4.569,0,0,0,2.26-1.092A7.887,7.887,0,0,0,43.2,6.275s.179-3.561-2.387-5.034c0,0-1.849-1.234-6.916-1.234" transform="translate(0 -0.003)" fill="#fff"/>
      <path id="패스_101" data-name="패스 101" d="M34.348,41.765a7.689,7.689,0,0,1-4.258,1.87l-12.176.159a66.912,66.912,0,0,1,.955,7.056l.231,3.236a7.017,7.017,0,0,1-3.176,6.234,2.618,2.618,0,0,1-2.6.239s-.385-.133-.45-1.247c0,0-.14-2.927-2.255-4.006,0,0-.292-.133-.106.305,0,0,1.141,1.1.915,3.793a2.872,2.872,0,0,1-3.051,2.613,7.729,7.729,0,0,1-7.8-5.708,8.314,8.314,0,0,0,1.735,4.222s2.728,2.928,8.611,3.267a10.727,10.727,0,0,0,4.058-.436A8.076,8.076,0,0,0,20.811,55.9a49.111,49.111,0,0,0-.748-10.418l8.622.053a13.474,13.474,0,0,0,3.979-.69s4.059-1.91,4.218-5.969a10.765,10.765,0,0,0-.168-2.682,6.792,6.792,0,0,1-2.366,5.573" transform="translate(-0.222 -13.827)" fill="#35b1ef"/>
      <path id="패스_102" data-name="패스 102" d="M194.528.007h-16.58s-6.7.075-10.455,2.026a7.707,7.707,0,0,0-.885.553c-1.1.777-3.663,2.749-4.63,4.929a22.626,22.626,0,0,0-1.353,7.851V39.148s.133,5.651,2.1,7.56c0,0,2.744,2.945,8.662,3.27a10.58,10.58,0,0,0,4.672-.742,7.244,7.244,0,0,0,4.731-6.905s.027-7.758-.318-10.676l8.622.053a13.477,13.477,0,0,0,3.979-.69s4.059-1.91,4.218-5.969a10.683,10.683,0,0,0-.138-2.522,4.7,4.7,0,0,0-1.2-2.477,3.468,3.468,0,0,0-2.407-1.128L178.612,19a.957.957,0,0,1-1.008-1.088v-3.8a.692.692,0,0,1,.736-.636h19.408a6.375,6.375,0,0,0,1.356-.142,4.569,4.569,0,0,0,2.26-1.092,7.887,7.887,0,0,0,2.467-5.969s.179-3.561-2.388-5.034c0,0-1.848-1.234-6.915-1.234" transform="translate(-61.366 -0.003)" fill="#fff"/>
      <path id="패스_103" data-name="패스 103" d="M194.974,41.765a7.689,7.689,0,0,1-4.258,1.87l-12.176.159a66.917,66.917,0,0,1,.955,7.056l.231,3.236a7.017,7.017,0,0,1-3.176,6.234,2.618,2.618,0,0,1-2.6.239s-.385-.133-.45-1.247c0,0-.14-2.927-2.255-4.006,0,0-.292-.133-.106.305,0,0,1.141,1.1.915,3.793A2.872,2.872,0,0,1,169,62.019a7.729,7.729,0,0,1-7.8-5.708,8.314,8.314,0,0,0,1.735,4.222s2.728,2.928,8.611,3.267a10.727,10.727,0,0,0,4.058-.436,8.076,8.076,0,0,0,5.827-7.466,49.111,49.111,0,0,0-.748-10.418l8.622.053a13.474,13.474,0,0,0,3.979-.69s4.059-1.91,4.218-5.969a10.764,10.764,0,0,0-.168-2.682,6.792,6.792,0,0,1-2.366,5.573" transform="translate(-61.588 -13.827)" fill="#35b1ef"/>
      <path id="패스_104" data-name="패스 104" d="M259,2.7c-13.818,0-25.02,10.819-25.02,24.164s11.2,24.165,25.02,24.165,25.02-10.819,25.02-24.165S272.814,2.7,259,2.7m-2.66,32.971A10.667,10.667,0,0,1,245.488,25.2a10.855,10.855,0,0,1,21.7,0,10.667,10.667,0,0,1-10.848,10.477" transform="translate(-89.389 -1.033)" fill="#35b1ef"/>
      <path id="패스_105" data-name="패스 105" d="M254.691,0c-13.819,0-25.02,10.819-25.02,24.164s11.2,24.165,25.02,24.165,25.02-10.819,25.02-24.165S268.51,0,254.691,0m0,34.641a10.667,10.667,0,0,1-10.848-10.477,10.855,10.855,0,0,1,21.7,0,10.667,10.667,0,0,1-10.848,10.477" transform="translate(-87.745 0)" fill="#fff"/>
    </g>
  </g>
</svg>
