<svg width="3" height="18" viewBox="0 0 3 18" fill="none" xmlns="http://www.w3.org/2000/svg">
<path d="M1.5 0C1.79667 0 2.08668 0.0879741 2.33335 0.252796C2.58002 0.417618 2.77229 0.651887 2.88582 0.925976C2.99935 1.20006 3.02905 1.50167 2.97118 1.79264C2.9133 2.08361 2.77044 2.35088 2.56066 2.56066C2.35088 2.77044 2.0836 2.9133 1.79263 2.97118C1.50166 3.02906 1.20006 2.99935 0.925972 2.88582C0.651883 2.77229 0.417614 2.58003 0.252792 2.33335C0.0879702 2.08668 0 1.79667 0 1.5C0 1.10218 0.158034 0.720643 0.439339 0.439339C0.720643 0.158034 1.10218 0 1.5 0Z" fill="#111111"/>
<path d="M1.5 7.5C1.79667 7.5 2.08668 7.58797 2.33335 7.7528C2.58002 7.91762 2.77229 8.15189 2.88582 8.42598C2.99935 8.70006 3.02905 9.00167 2.97118 9.29264C2.9133 9.58361 2.77044 9.85088 2.56066 10.0607C2.35088 10.2704 2.0836 10.4133 1.79263 10.4712C1.50166 10.5291 1.20006 10.4993 0.925972 10.3858C0.651883 10.2723 0.417614 10.08 0.252792 9.83335C0.0879702 9.58668 0 9.29667 0 9C0 8.60218 0.158034 8.22064 0.439339 7.93934C0.720643 7.65803 1.10218 7.5 1.5 7.5Z" fill="#111111"/>
<path d="M1.5 15C1.79667 15 2.08668 15.088 2.33335 15.2528C2.58002 15.4176 2.77229 15.6519 2.88582 15.926C2.99935 16.2001 3.02905 16.5017 2.97118 16.7926C2.9133 17.0836 2.77044 17.3509 2.56066 17.5607C2.35088 17.7704 2.0836 17.9133 1.79263 17.9712C1.50166 18.0291 1.20006 17.9993 0.925972 17.8858C0.651883 17.7723 0.417614 17.58 0.252792 17.3334C0.0879702 17.0867 0 16.7967 0 16.5C0 16.1022 0.158034 15.7206 0.439339 15.4393C0.720643 15.158 1.10218 15 1.5 15Z" fill="#111111"/>
</svg>
