<svg width="102" height="22" viewBox="0 0 102 22" fill="none" xmlns="http://www.w3.org/2000/svg">
<path d="M90.1168 18.2192C90.2423 18.1569 90.3809 18.1256 90.5209 18.128C90.661 18.1304 90.7984 18.1665 90.9217 18.2331C91.9794 18.7491 93.1448 19.0056 94.3214 18.9813C94.8035 18.9712 95.2739 18.8309 95.6828 18.5754C96.0916 18.3198 96.4238 17.9585 96.6442 17.5296C96.8654 16.8962 96.9118 16.215 96.7786 15.5574C96.6453 14.8999 96.3374 14.2904 95.8871 13.7931C94.7772 12.3605 93.4623 11.0993 91.9847 10.0501C91.6293 9.78784 91.2011 9.64269 90.7595 9.63482C90.3178 9.62695 89.8847 9.75675 89.5202 10.0062C88.0857 10.9252 86.7815 12.0331 85.6428 13.3003C84.9702 13.9462 84.4735 14.7532 84.1999 15.6447C84.1448 16.1687 84.2178 16.6982 84.4127 17.1878C84.6075 17.6773 84.9184 18.1121 85.3186 18.4549C85.7639 18.7105 86.2558 18.8746 86.7655 18.9373C87.2751 19.0001 87.7921 18.9603 88.2862 18.8203C88.9121 18.6714 89.5245 18.4704 90.1168 18.2192Z" fill="#E5E5EA"/>
<path d="M95.6101 5.95494C95.6386 4.29997 94.673 2.93745 93.4511 2.92066C92.2292 2.90388 91.2156 4.22359 91.1909 5.87986C91.1663 7.53614 92.1246 8.89193 93.3468 8.9141C94.569 8.93627 95.5817 7.60991 95.6101 5.95494Z" fill="#E5E5EA"/>
<path d="M99.2454 10.5522C99.6726 9.0547 99.1235 7.58913 98.0227 7.27327C96.9218 6.95741 95.6809 7.91726 95.2554 9.41C94.8299 10.9027 95.3773 12.3699 96.4788 12.6838C97.5803 12.9978 98.8171 12.0408 99.2458 10.5481" fill="#E5E5EA"/>
<path d="M82.2073 10.5427C81.8336 9.0349 82.4314 7.58884 83.5446 7.31309C84.6577 7.03735 85.8618 8.03648 86.2357 9.54331C86.6097 11.0502 86.0106 12.4968 84.8987 12.772C83.7869 13.0471 82.5809 12.0505 82.2073 10.5427Z" fill="#E5E5EA"/>
<path d="M90.2835 5.86251C90.312 4.20754 89.3464 2.84503 88.1235 2.82791C86.9007 2.8108 85.889 4.13117 85.8643 5.78744C85.8397 7.44371 86.798 8.79951 88.0193 8.82135C89.2405 8.8432 90.2551 7.51748 90.2835 5.86251Z" fill="#E5E5EA"/>
<path d="M50.35 18.2192C50.4754 18.1569 50.614 18.1256 50.7541 18.128C50.8941 18.1304 51.0316 18.1665 51.1548 18.2331C52.2125 18.7491 53.378 19.0056 54.5546 18.9813C55.0367 18.9712 55.507 18.8309 55.9159 18.5754C56.3248 18.3198 56.657 17.9585 56.8773 17.5296C57.0985 16.8962 57.1449 16.215 57.0117 15.5574C56.8785 14.8999 56.5705 14.2904 56.1203 13.7931C55.0104 12.3605 53.6955 11.0993 52.2179 10.0501C51.8625 9.78784 51.4343 9.64269 50.9926 9.63482C50.551 9.62695 50.1179 9.75675 49.7533 10.0062C48.3188 10.9252 47.0147 12.0331 45.876 13.3003C45.2033 13.9462 44.7067 14.7532 44.4331 15.6447C44.3779 16.1687 44.4509 16.6982 44.6458 17.1878C44.8407 17.6773 45.1516 18.1121 45.5517 18.4549C45.997 18.7105 46.489 18.8746 46.9986 18.9373C47.5083 19.0001 48.0253 18.9603 48.5193 18.8203C49.1453 18.6714 49.7576 18.4704 50.35 18.2192Z" fill="#60CFFF"/>
<path d="M55.8433 5.95494C55.8717 4.29997 54.9061 2.93745 53.6842 2.92066C52.4623 2.90388 51.4488 4.22359 51.4241 5.87986C51.3994 7.53614 52.3578 8.89193 53.58 8.9141C54.8021 8.93627 55.8148 7.60991 55.8433 5.95494Z" fill="#60CFFF"/>
<path d="M59.4786 10.5522C59.9057 9.0547 59.3567 7.58913 58.2558 7.27327C57.155 6.95741 55.914 7.91726 55.4885 9.41C55.063 10.9027 55.6105 12.3699 56.712 12.6838C57.8135 12.9978 59.0503 12.0408 59.4789 10.5481" fill="#60CFFF"/>
<path d="M42.4404 10.5427C42.0668 9.0349 42.6646 7.58884 43.7777 7.31309C44.8909 7.03735 46.0949 8.03648 46.4689 9.54331C46.8429 11.0502 46.2438 12.4968 45.1319 12.772C44.02 13.0471 42.8141 12.0505 42.4404 10.5427Z" fill="#60CFFF"/>
<path d="M50.5167 5.86251C50.5451 4.20754 49.5795 2.84503 48.3567 2.82791C47.1339 2.8108 46.1222 4.13117 46.0975 5.78744C46.0728 7.44371 47.0312 8.79951 48.2524 8.82135C49.4736 8.8432 50.4882 7.51748 50.5167 5.86251Z" fill="#60CFFF"/>
<path d="M70.2338 18.2192C70.3592 18.1569 70.4978 18.1256 70.6379 18.128C70.7779 18.1304 70.9154 18.1665 71.0386 18.2331C72.0963 18.7491 73.2618 19.0056 74.4384 18.9813C74.9205 18.9712 75.3908 18.8309 75.7997 18.5754C76.2086 18.3198 76.5408 17.9585 76.7611 17.5296C76.9823 16.8962 77.0287 16.215 76.8955 15.5574C76.7623 14.8999 76.4543 14.2904 76.004 13.7931C74.8942 12.3605 73.5793 11.0993 72.1017 10.0501C71.7463 9.78784 71.318 9.64269 70.8764 9.63482C70.4348 9.62695 70.0016 9.75675 69.6371 10.0062C68.2026 10.9252 66.8985 12.0331 65.7598 13.3003C65.0871 13.9462 64.5905 14.7532 64.3169 15.6447C64.2617 16.1687 64.3347 16.6982 64.5296 17.1878C64.7245 17.6773 65.0354 18.1121 65.4355 18.4549C65.8808 18.7105 66.3728 18.8746 66.8824 18.9373C67.392 19.0001 67.9091 18.9603 68.4031 18.8203C69.0291 18.6714 69.6414 18.4704 70.2338 18.2192Z" fill="#E5E5EA"/>
<path d="M75.7271 5.95494C75.7555 4.29997 74.7899 2.93745 73.568 2.92066C72.3461 2.90388 71.3325 4.22359 71.3079 5.87986C71.2832 7.53614 72.2416 8.89193 73.4637 8.9141C74.6859 8.93627 75.6986 7.60991 75.7271 5.95494Z" fill="#E5E5EA"/>
<path d="M79.3624 10.5522C79.7895 9.0547 79.2405 7.58913 78.1396 7.27327C77.0388 6.95741 75.7978 7.91726 75.3723 9.41C74.9468 10.9027 75.4943 12.3699 76.5958 12.6838C77.6973 12.9978 78.9341 12.0408 79.3627 10.5481" fill="#E5E5EA"/>
<path d="M62.3242 10.5427C61.9505 9.0349 62.5484 7.58884 63.6615 7.31309C64.7747 7.03735 65.9787 8.03648 66.3527 9.54331C66.7266 11.0502 66.1276 12.4968 65.0157 12.772C63.9038 13.0471 62.6978 12.0505 62.3242 10.5427Z" fill="#E5E5EA"/>
<path d="M70.4004 5.86251C70.4289 4.20754 69.4633 2.84503 68.2405 2.82791C67.0176 2.8108 66.0059 4.13117 65.9813 5.78744C65.9566 7.44371 66.915 8.79951 68.1362 8.82135C69.3574 8.8432 70.372 7.51748 70.4004 5.86251Z" fill="#E5E5EA"/>
<path d="M30.4669 18.2192C30.5924 18.1569 30.731 18.1256 30.871 18.128C31.0111 18.1304 31.1485 18.1665 31.2718 18.2331C32.3295 18.7491 33.4949 19.0056 34.6715 18.9813C35.1536 18.9712 35.624 18.8309 36.0329 18.5754C36.4417 18.3198 36.7739 17.9585 36.9943 17.5296C37.2155 16.8962 37.2619 16.215 37.1287 15.5574C36.9954 14.8999 36.6875 14.2904 36.2372 13.7931C35.1273 12.3605 33.8124 11.0993 32.3348 10.0501C31.9794 9.78784 31.5512 9.64269 31.1096 9.63482C30.6679 9.62695 30.2348 9.75675 29.8703 10.0062C28.4358 10.9252 27.1316 12.0331 25.9929 13.3003C25.3203 13.9462 24.8236 14.7532 24.55 15.6447C24.4949 16.1687 24.5679 16.6982 24.7628 17.1878C24.9576 17.6773 25.2685 18.1121 25.6687 18.4549C26.114 18.7105 26.6059 18.8746 27.1156 18.9373C27.6252 19.0001 28.1422 18.9603 28.6363 18.8203C29.2622 18.6714 29.8746 18.4704 30.4669 18.2192Z" fill="#60CFFF"/>
<path d="M35.9602 5.95494C35.9887 4.29997 35.0231 2.93745 33.8012 2.92066C32.5793 2.90388 31.5657 4.22359 31.541 5.87986C31.5164 7.53614 32.4747 8.89193 33.6969 8.9141C34.9191 8.93627 35.9318 7.60991 35.9602 5.95494Z" fill="#60CFFF"/>
<path d="M39.5955 10.5522C40.0227 9.0547 39.4736 7.58913 38.3728 7.27327C37.2719 6.95741 36.031 7.91726 35.6055 9.41C35.18 10.9027 35.7274 12.3699 36.8289 12.6838C37.9304 12.9978 39.1672 12.0408 39.5959 10.5481" fill="#60CFFF"/>
<path d="M22.5573 10.5427C22.1837 9.0349 22.7815 7.58884 23.8947 7.31309C25.0078 7.03735 26.2119 8.03648 26.5858 9.54331C26.9598 11.0502 26.3607 12.4968 25.2488 12.772C24.137 13.0471 22.931 12.0505 22.5573 10.5427Z" fill="#60CFFF"/>
<path d="M30.6336 5.86251C30.662 4.20754 29.6965 2.84503 28.4736 2.82791C27.2508 2.8108 26.2391 4.13117 26.2144 5.78744C26.1898 7.44371 27.1481 8.79951 28.3693 8.82135C29.5906 8.8432 30.6052 7.51748 30.6336 5.86251Z" fill="#60CFFF"/>
<path d="M10.5838 18.2192C10.7093 18.1569 10.8479 18.1256 10.988 18.128C11.128 18.1304 11.2655 18.1665 11.3887 18.2331C12.4464 18.7491 13.6119 19.0056 14.7885 18.9813C15.2706 18.9712 15.7409 18.8309 16.1498 18.5754C16.5587 18.3198 16.8909 17.9585 17.1112 17.5296C17.3324 16.8962 17.3788 16.215 17.2456 15.5574C17.1124 14.8999 16.8044 14.2904 16.3541 13.7931C15.2443 12.3605 13.9294 11.0993 12.4518 10.0501C12.0964 9.78784 11.6681 9.64269 11.2265 9.63482C10.7849 9.62695 10.3517 9.75675 9.98722 10.0062C8.55272 10.9252 7.24855 12.0331 6.10988 13.3003C5.4372 13.9462 4.94055 14.7532 4.66697 15.6447C4.61183 16.1687 4.68483 16.6982 4.8797 17.1878C5.07456 17.6773 5.38545 18.1121 5.78562 18.4549C6.23093 18.7105 6.72287 18.8746 7.23251 18.9373C7.74214 19.0001 8.25919 18.9603 8.75322 18.8203C9.37915 18.6714 9.9915 18.4704 10.5838 18.2192Z" fill="#60CFFF"/>
<path d="M16.0771 5.95494C16.1056 4.29997 15.14 2.93745 13.9181 2.92066C12.6962 2.90388 11.6826 4.22359 11.658 5.87986C11.6333 7.53614 12.5917 8.89193 13.8138 8.9141C15.036 8.93627 16.0487 7.60991 16.0771 5.95494Z" fill="#60CFFF"/>
<path d="M19.7125 10.5522C20.1396 9.0547 19.5906 7.58913 18.4897 7.27327C17.3889 6.95741 16.1479 7.91726 15.7224 9.41C15.2969 10.9027 15.8444 12.3699 16.9459 12.6838C18.0474 12.9978 19.2842 12.0408 19.7128 10.5481" fill="#60CFFF"/>
<path d="M2.67429 10.5427C2.30065 9.0349 2.89846 7.58884 4.01161 7.31309C5.12476 7.03735 6.3288 8.03648 6.70277 9.54331C7.07675 11.0502 6.47766 12.4968 5.36579 12.772C4.25391 13.0471 3.04794 12.0505 2.67429 10.5427Z" fill="#60CFFF"/>
<path d="M10.7505 5.86251C10.779 4.20754 9.81341 2.84503 8.59058 2.82791C7.36774 2.8108 6.35604 4.13117 6.33138 5.78744C6.30672 7.44371 7.26508 8.79951 8.48629 8.82135C9.7075 8.8432 10.7221 7.51748 10.7505 5.86251Z" fill="#60CFFF"/>
</svg>
