<svg width="21" height="21" viewBox="0 0 21 21" fill="none" xmlns="http://www.w3.org/2000/svg">
<path d="M2.343 4.86443C3.59224 3.01103 5.46544 1.66781 7.62165 1.07923C9.77786 0.490664 12.0737 0.695882 14.0914 1.65754C16.109 2.61919 17.7143 4.27335 18.615 6.31892C19.5157 8.36449 19.652 10.6655 18.9991 12.8031C18.3461 14.9407 16.9473 16.7728 15.0573 17.9659C13.1673 19.159 10.9117 19.6338 8.70106 19.3038C6.49044 18.9739 4.47178 17.8612 3.0125 16.1682C1.55322 14.4752 0.750342 12.3145 0.75 10.0794" stroke="black" stroke-width="1.5" stroke-linecap="round" stroke-linejoin="round"/>
<path d="M2.35798 0.752441L2.34198 4.86444L6.36698 5.54744" stroke="black" stroke-width="1.5" stroke-linecap="round" stroke-linejoin="round"/>
<path d="M10.05 4.87543V9.94643L13.042 12.0464" stroke="black" stroke-width="1.5" stroke-linecap="round" stroke-linejoin="round"/>
</svg>
