<svg width="20" height="14" viewBox="0 0 20 14" fill="none" xmlns="http://www.w3.org/2000/svg">
<g clip-path="url(#clip0_296_397)">
<path d="M19.058 6.03615C19.198 6.19931 19.2749 6.40718 19.2749 6.62215C19.2749 6.83712 19.198 7.04499 19.058 7.20815C17.766 8.70815 14.041 12.5941 9.993 12.5941C5.945 12.5941 2.219 8.71315 0.926998 7.20815C0.787028 7.04499 0.710083 6.83712 0.710083 6.62215C0.710083 6.40718 0.787028 6.19931 0.926998 6.03615C2.219 4.53615 5.944 0.650146 9.993 0.650146C14.042 0.650146 17.77 4.53115 19.058 6.03615Z" stroke="#E5E5EA" stroke-width="1.3" stroke-miterlimit="10"/>
<path d="M12.787 6.617C12.787 7.1696 12.6231 7.70979 12.3161 8.16926C12.0091 8.62873 11.5727 8.98685 11.0622 9.19832C10.5517 9.40979 9.98988 9.46512 9.44789 9.35731C8.90591 9.2495 8.40807 8.9834 8.01732 8.59266C7.62657 8.20191 7.36047 7.70406 7.25266 7.16208C7.14485 6.6201 7.20019 6.05832 7.41166 5.54778C7.62313 5.03724 7.98124 4.60088 8.44071 4.29387C8.90018 3.98686 9.44038 3.823 9.99298 3.823C10.734 3.823 11.4447 4.11737 11.9686 4.64134C12.4926 5.16532 12.787 5.87598 12.787 6.617Z" stroke="#E5E5EA" stroke-width="1.3" stroke-miterlimit="10"/>
</g>
<defs>
<clipPath id="clip0_296_397">
<rect width="19.984" height="13.244" fill="white"/>
</clipPath>
</defs>
</svg>
