<svg width="13" height="9" viewBox="0 0 13 9" fill="none" xmlns="http://www.w3.org/2000/svg">
<path d="M12.2412 3.79999C12.3323 3.90622 12.3824 4.04154 12.3824 4.18149C12.3824 4.32143 12.3323 4.45676 12.2412 4.56299C11.4002 5.54199 8.97718 8.06299 6.34118 8.06299C3.70518 8.06299 1.28318 5.53799 0.44118 4.56299C0.350072 4.45676 0.299988 4.32143 0.299988 4.18149C0.299988 4.04154 0.350072 3.90622 0.44118 3.79999C1.28218 2.82099 3.70518 0.299988 6.34118 0.299988C8.97718 0.299988 11.4002 2.81999 12.2412 3.79999Z" stroke="#8A8F99" stroke-width="0.6" stroke-miterlimit="10"/>
<path d="M8.16017 4.18098C8.16017 4.54054 8.05355 4.89204 7.85378 5.191C7.65402 5.48997 7.37008 5.72299 7.03789 5.86059C6.70569 5.99819 6.34015 6.03419 5.9875 5.96404C5.63484 5.8939 5.3109 5.72075 5.05665 5.4665C4.8024 5.21225 4.62925 4.88831 4.5591 4.53565C4.48896 4.18299 4.52496 3.81745 4.66256 3.48526C4.80016 3.15306 5.03318 2.86913 5.33214 2.66936C5.63111 2.4696 5.9826 2.36298 6.34217 2.36298C6.58091 2.36298 6.81732 2.41 7.03789 2.50136C7.25846 2.59273 7.45887 2.72664 7.62769 2.89546C7.79651 3.06427 7.93042 3.26469 8.02178 3.48526C8.11314 3.70583 8.16017 3.94223 8.16017 4.18098Z" stroke="#8A8F99" stroke-width="0.6" stroke-miterlimit="10"/>
</svg>
